<?xml version="1.0" encoding="utf-8" standalone="no"?>
<!DOCTYPE svg PUBLIC "-//W3C//DTD SVG 1.1//EN"
  "http://www.w3.org/Graphics/SVG/1.1/DTD/svg11.dtd">
<svg xmlns:xlink="http://www.w3.org/1999/xlink" width="567.516875pt" height="710.532562pt" viewBox="0 0 567.516875 710.532562" xmlns="http://www.w3.org/2000/svg" version="1.1">
 <metadata>
  <rdf:RDF xmlns:dc="http://purl.org/dc/elements/1.1/" xmlns:cc="http://creativecommons.org/ns#" xmlns:rdf="http://www.w3.org/1999/02/22-rdf-syntax-ns#">
   <cc:Work>
    <dc:type rdf:resource="http://purl.org/dc/dcmitype/StillImage"/>
    <dc:date>2025-12-15T14:12:49.133270</dc:date>
    <dc:format>image/svg+xml</dc:format>
    <dc:creator>
     <cc:Agent>
      <dc:title>Matplotlib v3.10.8, https://matplotlib.org/</dc:title>
     </cc:Agent>
    </dc:creator>
   </cc:Work>
  </rdf:RDF>
 </metadata>
 <defs>
  <style type="text/css">*{stroke-linejoin: round; stroke-linecap: butt}</style>
 </defs>
 <g id="figure_1">
  <g id="patch_1">
   <path d="M 0 710.532562 
L 567.516875 710.532562 
L 567.516875 0 
L 0 0 
z
" style="fill: #ffffff"/>
  </g>
  <g id="axes_1">
   <g id="patch_2">
    <path d="M 45.716875 671.040687 
L 560.316875 671.040687 
L 560.316875 37.736687 
L 45.716875 37.736687 
z
" style="fill: #ffffff"/>
   </g>
   <g id="matplotlib.axis_1">
    <g id="xtick_1">
     <g id="line2d_1">
      <path d="M 60.672972 671.040687 
L 60.672972 37.736687 
" clip-path="url(#p72386d05f0)" style="fill: none; stroke: #b0b0b0; stroke-opacity: 0.3; stroke-width: 0.8; stroke-linecap: square"/>
     </g>
     <g id="line2d_2">
      <defs>
       <path id="m0314e5fd7e" d="M 0 0 
L 0 3.5 
" style="stroke: #000000; stroke-width: 0.8"/>
      </defs>
      <g>
       <use xlink:href="#m0314e5fd7e" x="60.672972" y="671.040687" style="stroke: #000000; stroke-width: 0.8"/>
      </g>
     </g>
     <g id="text_1">
      <!-- −0.4 -->
      <g transform="translate(48.531565 685.639125) scale(0.1 -0.1)">
       <defs>
        <path id="DejaVuSans-2212" d="M 678 2272 
L 4684 2272 
L 4684 1741 
L 678 1741 
L 678 2272 
z
" transform="scale(0.015625)"/>
        <path id="DejaVuSans-30" d="M 2034 4250 
Q 1547 4250 1301 3770 
Q 1056 3291 1056 2328 
Q 1056 1369 1301 889 
Q 1547 409 2034 409 
Q 2525 409 2770 889 
Q 3016 1369 3016 2328 
Q 3016 3291 2770 3770 
Q 2525 4250 2034 4250 
z
M 2034 4750 
Q 2819 4750 3233 4129 
Q 3647 3509 3647 2328 
Q 3647 1150 3233 529 
Q 2819 -91 2034 -91 
Q 1250 -91 836 529 
Q 422 1150 422 2328 
Q 422 3509 836 4129 
Q 1250 4750 2034 4750 
z
" transform="scale(0.015625)"/>
        <path id="DejaVuSans-2e" d="M 684 794 
L 1344 794 
L 1344 0 
L 684 0 
L 684 794 
z
" transform="scale(0.015625)"/>
        <path id="DejaVuSans-34" d="M 2419 4116 
L 825 1625 
L 2419 1625 
L 2419 4116 
z
M 2253 4666 
L 3047 4666 
L 3047 1625 
L 3713 1625 
L 3713 1100 
L 3047 1100 
L 3047 0 
L 2419 0 
L 2419 1100 
L 313 1100 
L 313 1709 
L 2253 4666 
z
" transform="scale(0.015625)"/>
       </defs>
       <use xlink:href="#DejaVuSans-2212"/>
       <use xlink:href="#DejaVuSans-30" transform="translate(83.789062 0)"/>
       <use xlink:href="#DejaVuSans-2e" transform="translate(147.412109 0)"/>
       <use xlink:href="#DejaVuSans-34" transform="translate(179.199219 0)"/>
      </g>
     </g>
    </g>
    <g id="xtick_2">
     <g id="line2d_3">
      <path d="M 128.709114 671.040687 
L 128.709114 37.736687 
" clip-path="url(#p72386d05f0)" style="fill: none; stroke: #b0b0b0; stroke-opacity: 0.3; stroke-width: 0.8; stroke-linecap: square"/>
     </g>
     <g id="line2d_4">
      <g>
       <use xlink:href="#m0314e5fd7e" x="128.709114" y="671.040687" style="stroke: #000000; stroke-width: 0.8"/>
      </g>
     </g>
     <g id="text_2">
      <!-- −0.2 -->
      <g transform="translate(116.567707 685.639125) scale(0.1 -0.1)">
       <defs>
        <path id="DejaVuSans-32" d="M 1228 531 
L 3431 531 
L 3431 0 
L 469 0 
L 469 531 
Q 828 903 1448 1529 
Q 2069 2156 2228 2338 
Q 2531 2678 2651 2914 
Q 2772 3150 2772 3378 
Q 2772 3750 2511 3984 
Q 2250 4219 1831 4219 
Q 1534 4219 1204 4116 
Q 875 4013 500 3803 
L 500 4441 
Q 881 4594 1212 4672 
Q 1544 4750 1819 4750 
Q 2544 4750 2975 4387 
Q 3406 4025 3406 3419 
Q 3406 3131 3298 2873 
Q 3191 2616 2906 2266 
Q 2828 2175 2409 1742 
Q 1991 1309 1228 531 
z
" transform="scale(0.015625)"/>
       </defs>
       <use xlink:href="#DejaVuSans-2212"/>
       <use xlink:href="#DejaVuSans-30" transform="translate(83.789062 0)"/>
       <use xlink:href="#DejaVuSans-2e" transform="translate(147.412109 0)"/>
       <use xlink:href="#DejaVuSans-32" transform="translate(179.199219 0)"/>
      </g>
     </g>
    </g>
    <g id="xtick_3">
     <g id="line2d_5">
      <path d="M 196.745256 671.040687 
L 196.745256 37.736687 
" clip-path="url(#p72386d05f0)" style="fill: none; stroke: #b0b0b0; stroke-opacity: 0.3; stroke-width: 0.8; stroke-linecap: square"/>
     </g>
     <g id="line2d_6">
      <g>
       <use xlink:href="#m0314e5fd7e" x="196.745256" y="671.040687" style="stroke: #000000; stroke-width: 0.8"/>
      </g>
     </g>
     <g id="text_3">
      <!-- 0.0 -->
      <g transform="translate(188.793693 685.639125) scale(0.1 -0.1)">
       <use xlink:href="#DejaVuSans-30"/>
       <use xlink:href="#DejaVuSans-2e" transform="translate(63.623047 0)"/>
       <use xlink:href="#DejaVuSans-30" transform="translate(95.410156 0)"/>
      </g>
     </g>
    </g>
    <g id="xtick_4">
     <g id="line2d_7">
      <path d="M 264.781398 671.040687 
L 264.781398 37.736687 
" clip-path="url(#p72386d05f0)" style="fill: none; stroke: #b0b0b0; stroke-opacity: 0.3; stroke-width: 0.8; stroke-linecap: square"/>
     </g>
     <g id="line2d_8">
      <g>
       <use xlink:href="#m0314e5fd7e" x="264.781398" y="671.040687" style="stroke: #000000; stroke-width: 0.8"/>
      </g>
     </g>
     <g id="text_4">
      <!-- 0.2 -->
      <g transform="translate(256.829835 685.639125) scale(0.1 -0.1)">
       <use xlink:href="#DejaVuSans-30"/>
       <use xlink:href="#DejaVuSans-2e" transform="translate(63.623047 0)"/>
       <use xlink:href="#DejaVuSans-32" transform="translate(95.410156 0)"/>
      </g>
     </g>
    </g>
    <g id="xtick_5">
     <g id="line2d_9">
      <path d="M 332.81754 671.040687 
L 332.81754 37.736687 
" clip-path="url(#p72386d05f0)" style="fill: none; stroke: #b0b0b0; stroke-opacity: 0.3; stroke-width: 0.8; stroke-linecap: square"/>
     </g>
     <g id="line2d_10">
      <g>
       <use xlink:href="#m0314e5fd7e" x="332.81754" y="671.040687" style="stroke: #000000; stroke-width: 0.8"/>
      </g>
     </g>
     <g id="text_5">
      <!-- 0.4 -->
      <g transform="translate(324.865977 685.639125) scale(0.1 -0.1)">
       <use xlink:href="#DejaVuSans-30"/>
       <use xlink:href="#DejaVuSans-2e" transform="translate(63.623047 0)"/>
       <use xlink:href="#DejaVuSans-34" transform="translate(95.410156 0)"/>
      </g>
     </g>
    </g>
    <g id="xtick_6">
     <g id="line2d_11">
      <path d="M 400.853682 671.040687 
L 400.853682 37.736687 
" clip-path="url(#p72386d05f0)" style="fill: none; stroke: #b0b0b0; stroke-opacity: 0.3; stroke-width: 0.8; stroke-linecap: square"/>
     </g>
     <g id="line2d_12">
      <g>
       <use xlink:href="#m0314e5fd7e" x="400.853682" y="671.040687" style="stroke: #000000; stroke-width: 0.8"/>
      </g>
     </g>
     <g id="text_6">
      <!-- 0.6 -->
      <g transform="translate(392.902119 685.639125) scale(0.1 -0.1)">
       <defs>
        <path id="DejaVuSans-36" d="M 2113 2584 
Q 1688 2584 1439 2293 
Q 1191 2003 1191 1497 
Q 1191 994 1439 701 
Q 1688 409 2113 409 
Q 2538 409 2786 701 
Q 3034 994 3034 1497 
Q 3034 2003 2786 2293 
Q 2538 2584 2113 2584 
z
M 3366 4563 
L 3366 3988 
Q 3128 4100 2886 4159 
Q 2644 4219 2406 4219 
Q 1781 4219 1451 3797 
Q 1122 3375 1075 2522 
Q 1259 2794 1537 2939 
Q 1816 3084 2150 3084 
Q 2853 3084 3261 2657 
Q 3669 2231 3669 1497 
Q 3669 778 3244 343 
Q 2819 -91 2113 -91 
Q 1303 -91 875 529 
Q 447 1150 447 2328 
Q 447 3434 972 4092 
Q 1497 4750 2381 4750 
Q 2619 4750 2861 4703 
Q 3103 4656 3366 4563 
z
" transform="scale(0.015625)"/>
       </defs>
       <use xlink:href="#DejaVuSans-30"/>
       <use xlink:href="#DejaVuSans-2e" transform="translate(63.623047 0)"/>
       <use xlink:href="#DejaVuSans-36" transform="translate(95.410156 0)"/>
      </g>
     </g>
    </g>
    <g id="xtick_7">
     <g id="line2d_13">
      <path d="M 468.889824 671.040687 
L 468.889824 37.736687 
" clip-path="url(#p72386d05f0)" style="fill: none; stroke: #b0b0b0; stroke-opacity: 0.3; stroke-width: 0.8; stroke-linecap: square"/>
     </g>
     <g id="line2d_14">
      <g>
       <use xlink:href="#m0314e5fd7e" x="468.889824" y="671.040687" style="stroke: #000000; stroke-width: 0.8"/>
      </g>
     </g>
     <g id="text_7">
      <!-- 0.8 -->
      <g transform="translate(460.938261 685.639125) scale(0.1 -0.1)">
       <defs>
        <path id="DejaVuSans-38" d="M 2034 2216 
Q 1584 2216 1326 1975 
Q 1069 1734 1069 1313 
Q 1069 891 1326 650 
Q 1584 409 2034 409 
Q 2484 409 2743 651 
Q 3003 894 3003 1313 
Q 3003 1734 2745 1975 
Q 2488 2216 2034 2216 
z
M 1403 2484 
Q 997 2584 770 2862 
Q 544 3141 544 3541 
Q 544 4100 942 4425 
Q 1341 4750 2034 4750 
Q 2731 4750 3128 4425 
Q 3525 4100 3525 3541 
Q 3525 3141 3298 2862 
Q 3072 2584 2669 2484 
Q 3125 2378 3379 2068 
Q 3634 1759 3634 1313 
Q 3634 634 3220 271 
Q 2806 -91 2034 -91 
Q 1263 -91 848 271 
Q 434 634 434 1313 
Q 434 1759 690 2068 
Q 947 2378 1403 2484 
z
M 1172 3481 
Q 1172 3119 1398 2916 
Q 1625 2713 2034 2713 
Q 2441 2713 2670 2916 
Q 2900 3119 2900 3481 
Q 2900 3844 2670 4047 
Q 2441 4250 2034 4250 
Q 1625 4250 1398 4047 
Q 1172 3844 1172 3481 
z
" transform="scale(0.015625)"/>
       </defs>
       <use xlink:href="#DejaVuSans-30"/>
       <use xlink:href="#DejaVuSans-2e" transform="translate(63.623047 0)"/>
       <use xlink:href="#DejaVuSans-38" transform="translate(95.410156 0)"/>
      </g>
     </g>
    </g>
    <g id="xtick_8">
     <g id="line2d_15">
      <path d="M 536.925966 671.040687 
L 536.925966 37.736687 
" clip-path="url(#p72386d05f0)" style="fill: none; stroke: #b0b0b0; stroke-opacity: 0.3; stroke-width: 0.8; stroke-linecap: square"/>
     </g>
     <g id="line2d_16">
      <g>
       <use xlink:href="#m0314e5fd7e" x="536.925966" y="671.040687" style="stroke: #000000; stroke-width: 0.8"/>
      </g>
     </g>
     <g id="text_8">
      <!-- 1.0 -->
      <g transform="translate(528.974403 685.639125) scale(0.1 -0.1)">
       <defs>
        <path id="DejaVuSans-31" d="M 794 531 
L 1825 531 
L 1825 4091 
L 703 3866 
L 703 4441 
L 1819 4666 
L 2450 4666 
L 2450 531 
L 3481 531 
L 3481 0 
L 794 0 
L 794 531 
z
" transform="scale(0.015625)"/>
       </defs>
       <use xlink:href="#DejaVuSans-31"/>
       <use xlink:href="#DejaVuSans-2e" transform="translate(63.623047 0)"/>
       <use xlink:href="#DejaVuSans-30" transform="translate(95.410156 0)"/>
      </g>
     </g>
    </g>
    <g id="text_9">
     <!-- u -->
     <g transform="translate(298.745625 700.836937) scale(0.12 -0.12)">
      <defs>
       <path id="DejaVuSans-Bold-75" d="M 500 1363 
L 500 3500 
L 1625 3500 
L 1625 3150 
Q 1625 2866 1622 2436 
Q 1619 2006 1619 1863 
Q 1619 1441 1641 1255 
Q 1663 1069 1716 984 
Q 1784 875 1895 815 
Q 2006 756 2150 756 
Q 2500 756 2700 1025 
Q 2900 1294 2900 1772 
L 2900 3500 
L 4019 3500 
L 4019 0 
L 2900 0 
L 2900 506 
Q 2647 200 2364 54 
Q 2081 -91 1741 -91 
Q 1134 -91 817 281 
Q 500 653 500 1363 
z
" transform="scale(0.015625)"/>
      </defs>
      <use xlink:href="#DejaVuSans-Bold-75"/>
     </g>
    </g>
   </g>
   <g id="matplotlib.axis_2">
    <g id="ytick_1">
     <g id="line2d_17">
      <path d="M 45.716875 642.254142 
L 560.316875 642.254142 
" clip-path="url(#p72386d05f0)" style="fill: none; stroke: #b0b0b0; stroke-opacity: 0.3; stroke-width: 0.8; stroke-linecap: square"/>
     </g>
     <g id="line2d_18">
      <defs>
       <path id="mbca0fb896e" d="M 0 0 
L -3.5 0 
" style="stroke: #000000; stroke-width: 0.8"/>
      </defs>
      <g>
       <use xlink:href="#mbca0fb896e" x="45.716875" y="642.254142" style="stroke: #000000; stroke-width: 0.8"/>
      </g>
     </g>
     <g id="text_10">
      <!-- 0.0 -->
      <g transform="translate(22.81375 646.053361) scale(0.1 -0.1)">
       <use xlink:href="#DejaVuSans-30"/>
       <use xlink:href="#DejaVuSans-2e" transform="translate(63.623047 0)"/>
       <use xlink:href="#DejaVuSans-30" transform="translate(95.410156 0)"/>
      </g>
     </g>
    </g>
    <g id="ytick_2">
     <g id="line2d_19">
      <path d="M 45.716875 527.10796 
L 560.316875 527.10796 
" clip-path="url(#p72386d05f0)" style="fill: none; stroke: #b0b0b0; stroke-opacity: 0.3; stroke-width: 0.8; stroke-linecap: square"/>
     </g>
     <g id="line2d_20">
      <g>
       <use xlink:href="#mbca0fb896e" x="45.716875" y="527.10796" style="stroke: #000000; stroke-width: 0.8"/>
      </g>
     </g>
     <g id="text_11">
      <!-- 0.2 -->
      <g transform="translate(22.81375 530.907179) scale(0.1 -0.1)">
       <use xlink:href="#DejaVuSans-30"/>
       <use xlink:href="#DejaVuSans-2e" transform="translate(63.623047 0)"/>
       <use xlink:href="#DejaVuSans-32" transform="translate(95.410156 0)"/>
      </g>
     </g>
    </g>
    <g id="ytick_3">
     <g id="line2d_21">
      <path d="M 45.716875 411.961778 
L 560.316875 411.961778 
" clip-path="url(#p72386d05f0)" style="fill: none; stroke: #b0b0b0; stroke-opacity: 0.3; stroke-width: 0.8; stroke-linecap: square"/>
     </g>
     <g id="line2d_22">
      <g>
       <use xlink:href="#mbca0fb896e" x="45.716875" y="411.961778" style="stroke: #000000; stroke-width: 0.8"/>
      </g>
     </g>
     <g id="text_12">
      <!-- 0.4 -->
      <g transform="translate(22.81375 415.760997) scale(0.1 -0.1)">
       <use xlink:href="#DejaVuSans-30"/>
       <use xlink:href="#DejaVuSans-2e" transform="translate(63.623047 0)"/>
       <use xlink:href="#DejaVuSans-34" transform="translate(95.410156 0)"/>
      </g>
     </g>
    </g>
    <g id="ytick_4">
     <g id="line2d_23">
      <path d="M 45.716875 296.815597 
L 560.316875 296.815597 
" clip-path="url(#p72386d05f0)" style="fill: none; stroke: #b0b0b0; stroke-opacity: 0.3; stroke-width: 0.8; stroke-linecap: square"/>
     </g>
     <g id="line2d_24">
      <g>
       <use xlink:href="#mbca0fb896e" x="45.716875" y="296.815597" style="stroke: #000000; stroke-width: 0.8"/>
      </g>
     </g>
     <g id="text_13">
      <!-- 0.6 -->
      <g transform="translate(22.81375 300.614815) scale(0.1 -0.1)">
       <use xlink:href="#DejaVuSans-30"/>
       <use xlink:href="#DejaVuSans-2e" transform="translate(63.623047 0)"/>
       <use xlink:href="#DejaVuSans-36" transform="translate(95.410156 0)"/>
      </g>
     </g>
    </g>
    <g id="ytick_5">
     <g id="line2d_25">
      <path d="M 45.716875 181.669415 
L 560.316875 181.669415 
" clip-path="url(#p72386d05f0)" style="fill: none; stroke: #b0b0b0; stroke-opacity: 0.3; stroke-width: 0.8; stroke-linecap: square"/>
     </g>
     <g id="line2d_26">
      <g>
       <use xlink:href="#mbca0fb896e" x="45.716875" y="181.669415" style="stroke: #000000; stroke-width: 0.8"/>
      </g>
     </g>
     <g id="text_14">
      <!-- 0.8 -->
      <g transform="translate(22.81375 185.468634) scale(0.1 -0.1)">
       <use xlink:href="#DejaVuSans-30"/>
       <use xlink:href="#DejaVuSans-2e" transform="translate(63.623047 0)"/>
       <use xlink:href="#DejaVuSans-38" transform="translate(95.410156 0)"/>
      </g>
     </g>
    </g>
    <g id="ytick_6">
     <g id="line2d_27">
      <path d="M 45.716875 66.523233 
L 560.316875 66.523233 
" clip-path="url(#p72386d05f0)" style="fill: none; stroke: #b0b0b0; stroke-opacity: 0.3; stroke-width: 0.8; stroke-linecap: square"/>
     </g>
     <g id="line2d_28">
      <g>
       <use xlink:href="#mbca0fb896e" x="45.716875" y="66.523233" style="stroke: #000000; stroke-width: 0.8"/>
      </g>
     </g>
     <g id="text_15">
      <!-- 1.0 -->
      <g transform="translate(22.81375 70.322452) scale(0.1 -0.1)">
       <use xlink:href="#DejaVuSans-31"/>
       <use xlink:href="#DejaVuSans-2e" transform="translate(63.623047 0)"/>
       <use xlink:href="#DejaVuSans-30" transform="translate(95.410156 0)"/>
      </g>
     </g>
    </g>
    <g id="text_16">
     <!-- y -->
     <g transform="translate(16.224375 358.299937) rotate(-90) scale(0.12 -0.12)">
      <defs>
       <path id="DejaVuSans-Bold-79" d="M 78 3500 
L 1197 3500 
L 2138 1125 
L 2938 3500 
L 4056 3500 
L 2584 -331 
Q 2363 -916 2067 -1148 
Q 1772 -1381 1288 -1381 
L 641 -1381 
L 641 -647 
L 991 -647 
Q 1275 -647 1404 -556 
Q 1534 -466 1606 -231 
L 1638 -134 
L 78 3500 
z
" transform="scale(0.015625)"/>
      </defs>
      <use xlink:href="#DejaVuSans-Bold-79"/>
     </g>
    </g>
   </g>
   <g id="line2d_29">
    <path d="M 196.745256 642.254142 
L 192.860526 633.258347 
L 189.224067 624.262551 
L 185.794877 615.266756 
L 180.961928 601.773062 
L 176.41094 588.279369 
L 170.636399 570.287778 
L 163.678858 547.79829 
L 150.036622 502.819312 
L 143.35792 480.329824 
L 138.248058 462.338233 
L 134.670044 448.84454 
L 132.460554 439.848744 
L 130.431041 430.852949 
L 128.618087 421.857153 
L 127.060071 412.861358 
L 125.796315 403.865563 
L 124.866099 394.869767 
L 124.307606 385.873972 
L 124.156795 376.878176 
L 124.244625 372.380278 
L 124.446288 367.882381 
L 124.765166 363.384483 
L 125.204302 358.886585 
L 125.766376 354.388688 
L 126.453684 349.89079 
L 127.268113 345.392892 
L 128.211129 340.894994 
L 129.283763 336.397097 
L 130.486607 331.899199 
L 131.819809 327.401301 
L 133.283078 322.903403 
L 134.875692 318.405506 
L 136.59651 313.907608 
L 138.443996 309.40971 
L 140.416242 304.911812 
L 144.725709 295.916017 
L 149.503527 286.920222 
L 154.724957 277.924426 
L 160.363743 268.928631 
L 166.394332 259.932835 
L 172.794524 250.93704 
L 179.548582 241.941244 
L 186.650882 232.945449 
L 194.110187 223.949653 
L 201.954625 214.953858 
L 210.237424 205.958063 
L 219.043313 196.962267 
L 223.679192 192.464369 
L 228.495365 187.966472 
L 233.51431 183.468574 
L 238.761681 178.970676 
L 244.266432 174.472778 
L 250.060883 169.974881 
L 256.180699 165.476983 
L 262.664772 160.979085 
L 269.554976 156.481188 
L 276.895763 151.98329 
L 284.733576 147.485392 
L 293.116055 142.987494 
L 302.09099 138.489597 
L 311.705027 133.991699 
L 322.002085 129.493801 
L 333.021494 124.995903 
L 344.795859 120.498006 
L 357.348676 116.000108 
L 370.691745 111.50221 
L 384.822467 107.004313 
L 399.721113 102.506415 
L 415.348224 98.008517 
L 431.642297 93.510619 
L 448.517974 89.012722 
L 483.548073 80.016926 
L 536.925966 66.523233 
L 536.925966 66.523233 
" clip-path="url(#p72386d05f0)" style="fill: none; stroke: #1f77b4; stroke-width: 2; stroke-linecap: square"/>
    <defs>
     <path id="mac674a7489" d="M 0 1.5 
C 0.397805 1.5 0.77937 1.341951 1.06066 1.06066 
C 1.341951 0.77937 1.5 0.397805 1.5 0 
C 1.5 -0.397805 1.341951 -0.77937 1.06066 -1.06066 
C 0.77937 -1.341951 0.397805 -1.5 0 -1.5 
C -0.397805 -1.5 -0.77937 -1.341951 -1.06066 -1.06066 
C -1.341951 -0.77937 -1.5 -0.397805 -1.5 0 
C -1.5 0.397805 -1.341951 0.77937 -1.06066 1.06066 
C -0.77937 1.341951 -0.397805 1.5 0 1.5 
z
" style="stroke: #1f77b4"/>
    </defs>
    <g clip-path="url(#p72386d05f0)">
     <use xlink:href="#mac674a7489" x="196.745256" y="642.254142" style="fill: #1f77b4; stroke: #1f77b4"/>
     <use xlink:href="#mac674a7489" x="176.41094" y="588.279369" style="fill: #1f77b4; stroke: #1f77b4"/>
     <use xlink:href="#mac674a7489" x="159.566057" y="534.304597" style="fill: #1f77b4; stroke: #1f77b4"/>
     <use xlink:href="#mac674a7489" x="143.35792" y="480.329824" style="fill: #1f77b4; stroke: #1f77b4"/>
     <use xlink:href="#mac674a7489" x="129.495128" y="426.355051" style="fill: #1f77b4; stroke: #1f77b4"/>
     <use xlink:href="#mac674a7489" x="124.244625" y="372.380278" style="fill: #1f77b4; stroke: #1f77b4"/>
     <use xlink:href="#mac674a7489" x="134.875692" y="318.405506" style="fill: #1f77b4; stroke: #1f77b4"/>
     <use xlink:href="#mac674a7489" x="163.331562" y="264.430733" style="fill: #1f77b4; stroke: #1f77b4"/>
     <use xlink:href="#mac674a7489" x="206.036752" y="210.45596" style="fill: #1f77b4; stroke: #1f77b4"/>
     <use xlink:href="#mac674a7489" x="269.554976" y="156.481188" style="fill: #1f77b4; stroke: #1f77b4"/>
     <use xlink:href="#mac674a7489" x="399.721113" y="102.506415" style="fill: #1f77b4; stroke: #1f77b4"/>
    </g>
   </g>
   <g id="line2d_30">
    <path d="M 196.745256 642.254142 
L 188.528583 633.258347 
L 180.811103 624.262551 
L 173.437345 615.266756 
L 162.726148 601.773062 
L 144.942128 579.283574 
L 130.376163 561.291983 
L 119.485752 547.79829 
L 112.490342 538.802494 
L 105.925692 529.806699 
L 102.870819 525.308801 
L 100.003644 520.810903 
L 97.350706 516.313006 
L 94.937392 511.815108 
L 92.787319 507.31721 
L 90.921766 502.819312 
L 89.359135 498.321415 
L 88.114502 493.823517 
L 87.19924 489.325619 
L 86.620747 484.827722 
L 86.382286 480.329824 
L 86.48294 475.831926 
L 86.917689 471.334028 
L 87.6776 466.836131 
L 88.750125 462.338233 
L 90.119494 457.840335 
L 91.767183 453.342437 
L 93.672432 448.84454 
L 95.812805 444.346642 
L 98.164756 439.848744 
L 100.704188 435.350847 
L 103.406985 430.852949 
L 109.208959 421.857153 
L 115.394297 412.861358 
L 125.066417 399.367665 
L 144.610495 372.380278 
L 157.297546 354.388688 
L 169.684705 336.397097 
L 206.598634 282.422324 
L 222.410168 259.932835 
L 260.73374 205.958063 
L 269.898758 192.464369 
L 275.786063 183.468574 
L 281.458754 174.472778 
L 286.91061 165.476983 
L 300.215834 142.987494 
L 303.135663 138.489597 
L 306.339357 133.991699 
L 309.975124 129.493801 
L 314.234057 124.995903 
L 319.354323 120.498006 
L 325.62181 116.000108 
L 333.365066 111.50221 
L 342.94209 107.004313 
L 354.716576 102.506415 
L 369.021848 98.008517 
L 386.112111 93.510619 
L 406.103128 89.012722 
L 428.908016 84.514824 
L 454.178594 80.016926 
L 481.268137 75.519028 
L 536.925966 66.523233 
L 536.925966 66.523233 
" clip-path="url(#p72386d05f0)" style="fill: none; stroke: #ff7f0e; stroke-width: 2; stroke-linecap: square"/>
    <defs>
     <path id="m1ba675700d" d="M 0 1.5 
C 0.397805 1.5 0.77937 1.341951 1.06066 1.06066 
C 1.341951 0.77937 1.5 0.397805 1.5 0 
C 1.5 -0.397805 1.341951 -0.77937 1.06066 -1.06066 
C 0.77937 -1.341951 0.397805 -1.5 0 -1.5 
C -0.397805 -1.5 -0.77937 -1.341951 -1.06066 -1.06066 
C -1.341951 -0.77937 -1.5 -0.397805 -1.5 0 
C -1.5 0.397805 -1.341951 0.77937 -1.06066 1.06066 
C -0.77937 1.341951 -0.397805 1.5 0 1.5 
z
" style="stroke: #ff7f0e"/>
    </defs>
    <g clip-path="url(#p72386d05f0)">
     <use xlink:href="#m1ba675700d" x="196.745256" y="642.254142" style="fill: #ff7f0e; stroke: #ff7f0e"/>
     <use xlink:href="#m1ba675700d" x="152.102197" y="588.279369" style="fill: #ff7f0e; stroke: #ff7f0e"/>
     <use xlink:href="#m1ba675700d" x="109.141192" y="534.304597" style="fill: #ff7f0e; stroke: #ff7f0e"/>
     <use xlink:href="#m1ba675700d" x="86.382286" y="480.329824" style="fill: #ff7f0e; stroke: #ff7f0e"/>
     <use xlink:href="#m1ba675700d" x="106.249495" y="426.355051" style="fill: #ff7f0e; stroke: #ff7f0e"/>
     <use xlink:href="#m1ba675700d" x="144.610495" y="372.380278" style="fill: #ff7f0e; stroke: #ff7f0e"/>
     <use xlink:href="#m1ba675700d" x="181.922494" y="318.405506" style="fill: #ff7f0e; stroke: #ff7f0e"/>
     <use xlink:href="#m1ba675700d" x="219.22288" y="264.430733" style="fill: #ff7f0e; stroke: #ff7f0e"/>
     <use xlink:href="#m1ba675700d" x="257.609045" y="210.45596" style="fill: #ff7f0e; stroke: #ff7f0e"/>
     <use xlink:href="#m1ba675700d" x="292.191342" y="156.481188" style="fill: #ff7f0e; stroke: #ff7f0e"/>
     <use xlink:href="#m1ba675700d" x="354.716576" y="102.506415" style="fill: #ff7f0e; stroke: #ff7f0e"/>
    </g>
   </g>
   <g id="line2d_31">
    <path d="M 196.745256 642.254142 
L 186.845777 637.756244 
L 177.621213 633.258347 
L 169.005724 628.760449 
L 160.927832 624.262551 
L 153.304318 619.764653 
L 146.043335 615.266756 
L 132.25704 606.27096 
L 119.052219 597.275165 
L 106.364129 588.279369 
L 100.324561 583.781472 
L 94.589969 579.283574 
L 89.249821 574.785676 
L 84.39446 570.287778 
L 80.108201 565.789881 
L 76.463561 561.291983 
L 73.516674 556.794085 
L 71.303963 552.296187 
L 69.84015 547.79829 
L 69.117712 543.300392 
L 69.107784 538.802494 
L 69.762423 534.304597 
L 71.01799 529.806699 
L 72.79932 525.308801 
L 75.02428 520.810903 
L 77.608298 516.313006 
L 80.468521 511.815108 
L 86.714967 502.819312 
L 99.712315 484.827722 
L 105.917715 475.831926 
L 111.798289 466.836131 
L 117.37253 457.840335 
L 122.701783 448.84454 
L 130.396127 435.350847 
L 147.899628 403.865563 
L 165.549731 372.380278 
L 180.916682 345.392892 
L 196.544079 318.405506 
L 209.850346 295.916017 
L 220.759519 277.924426 
L 229.146253 264.430733 
L 237.754738 250.93704 
L 246.632119 237.443347 
L 255.822425 223.949653 
L 265.349242 210.45596 
L 275.187323 196.962267 
L 298.493859 165.476983 
L 304.816469 156.481188 
L 310.726188 147.485392 
L 313.471908 142.987494 
L 316.050014 138.489597 
L 318.443638 133.991699 
L 320.645466 129.493801 
L 322.668381 124.995903 
L 326.457174 116.000108 
L 328.588173 111.50221 
L 331.381835 107.004313 
L 335.515261 102.506415 
L 341.972899 98.008517 
L 352.044558 93.510619 
L 367.211412 89.012722 
L 388.86435 84.514824 
L 417.8319 80.016926 
L 453.781446 75.519028 
L 494.708665 71.021131 
L 536.925966 66.523233 
L 536.925966 66.523233 
" clip-path="url(#p72386d05f0)" style="fill: none; stroke: #2ca02c; stroke-width: 2; stroke-linecap: square"/>
    <defs>
     <path id="m2ff470f91e" d="M 0 1.5 
C 0.397805 1.5 0.77937 1.341951 1.06066 1.06066 
C 1.341951 0.77937 1.5 0.397805 1.5 0 
C 1.5 -0.397805 1.341951 -0.77937 1.06066 -1.06066 
C 0.77937 -1.341951 0.397805 -1.5 0 -1.5 
C -0.397805 -1.5 -0.77937 -1.341951 -1.06066 -1.06066 
C -1.341951 -0.77937 -1.5 -0.397805 -1.5 0 
C -1.5 0.397805 -1.341951 0.77937 -1.06066 1.06066 
C -0.77937 1.341951 -0.397805 1.5 0 1.5 
z
" style="stroke: #2ca02c"/>
    </defs>
    <g clip-path="url(#p72386d05f0)">
     <use xlink:href="#m2ff470f91e" x="196.745256" y="642.254142" style="fill: #2ca02c; stroke: #2ca02c"/>
     <use xlink:href="#m2ff470f91e" x="106.364129" y="588.279369" style="fill: #2ca02c; stroke: #2ca02c"/>
     <use xlink:href="#m2ff470f91e" x="69.762423" y="534.304597" style="fill: #2ca02c; stroke: #2ca02c"/>
     <use xlink:href="#m2ff470f91e" x="102.854033" y="480.329824" style="fill: #2ca02c; stroke: #2ca02c"/>
     <use xlink:href="#m2ff470f91e" x="135.419148" y="426.355051" style="fill: #2ca02c; stroke: #2ca02c"/>
     <use xlink:href="#m2ff470f91e" x="165.549731" y="372.380278" style="fill: #2ca02c; stroke: #2ca02c"/>
     <use xlink:href="#m2ff470f91e" x="196.544079" y="318.405506" style="fill: #2ca02c; stroke: #2ca02c"/>
     <use xlink:href="#m2ff470f91e" x="229.146253" y="264.430733" style="fill: #2ca02c; stroke: #2ca02c"/>
     <use xlink:href="#m2ff470f91e" x="265.349242" y="210.45596" style="fill: #2ca02c; stroke: #2ca02c"/>
     <use xlink:href="#m2ff470f91e" x="304.816469" y="156.481188" style="fill: #2ca02c; stroke: #2ca02c"/>
     <use xlink:href="#m2ff470f91e" x="335.515261" y="102.506415" style="fill: #2ca02c; stroke: #2ca02c"/>
    </g>
   </g>
   <g id="patch_3">
    <path d="M 45.716875 671.040687 
L 45.716875 37.736688 
" style="fill: none; stroke: #000000; stroke-width: 0.8; stroke-linejoin: miter; stroke-linecap: square"/>
   </g>
   <g id="patch_4">
    <path d="M 560.316875 671.040687 
L 560.316875 37.736688 
" style="fill: none; stroke: #000000; stroke-width: 0.8; stroke-linejoin: miter; stroke-linecap: square"/>
   </g>
   <g id="patch_5">
    <path d="M 45.716875 671.040687 
L 560.316875 671.040687 
" style="fill: none; stroke: #000000; stroke-width: 0.8; stroke-linejoin: miter; stroke-linecap: square"/>
   </g>
   <g id="patch_6">
    <path d="M 45.716875 37.736687 
L 560.316875 37.736687 
" style="fill: none; stroke: #000000; stroke-width: 0.8; stroke-linejoin: miter; stroke-linecap: square"/>
   </g>
   <g id="text_17">
    <!-- u-velocity at vertical centerline (x=0.5) -->
    <g transform="translate(158.53 17.077969) scale(0.13 -0.13)">
     <defs>
      <path id="DejaVuSans-Bold-2d" d="M 347 2297 
L 2309 2297 
L 2309 1388 
L 347 1388 
L 347 2297 
z
" transform="scale(0.015625)"/>
      <path id="DejaVuSans-Bold-76" d="M 97 3500 
L 1216 3500 
L 2088 1081 
L 2956 3500 
L 4078 3500 
L 2700 0 
L 1472 0 
L 97 3500 
z
" transform="scale(0.015625)"/>
      <path id="DejaVuSans-Bold-65" d="M 4031 1759 
L 4031 1441 
L 1416 1441 
Q 1456 1047 1700 850 
Q 1944 653 2381 653 
Q 2734 653 3104 758 
Q 3475 863 3866 1075 
L 3866 213 
Q 3469 63 3072 -14 
Q 2675 -91 2278 -91 
Q 1328 -91 801 392 
Q 275 875 275 1747 
Q 275 2603 792 3093 
Q 1309 3584 2216 3584 
Q 3041 3584 3536 3087 
Q 4031 2591 4031 1759 
z
M 2881 2131 
Q 2881 2450 2695 2645 
Q 2509 2841 2209 2841 
Q 1884 2841 1681 2658 
Q 1478 2475 1428 2131 
L 2881 2131 
z
" transform="scale(0.015625)"/>
      <path id="DejaVuSans-Bold-6c" d="M 538 4863 
L 1656 4863 
L 1656 0 
L 538 0 
L 538 4863 
z
" transform="scale(0.015625)"/>
      <path id="DejaVuSans-Bold-6f" d="M 2203 2784 
Q 1831 2784 1636 2517 
Q 1441 2250 1441 1747 
Q 1441 1244 1636 976 
Q 1831 709 2203 709 
Q 2569 709 2762 976 
Q 2956 1244 2956 1747 
Q 2956 2250 2762 2517 
Q 2569 2784 2203 2784 
z
M 2203 3584 
Q 3106 3584 3614 3096 
Q 4122 2609 4122 1747 
Q 4122 884 3614 396 
Q 3106 -91 2203 -91 
Q 1297 -91 786 396 
Q 275 884 275 1747 
Q 275 2609 786 3096 
Q 1297 3584 2203 3584 
z
" transform="scale(0.015625)"/>
      <path id="DejaVuSans-Bold-63" d="M 3366 3391 
L 3366 2478 
Q 3138 2634 2908 2709 
Q 2678 2784 2431 2784 
Q 1963 2784 1702 2511 
Q 1441 2238 1441 1747 
Q 1441 1256 1702 982 
Q 1963 709 2431 709 
Q 2694 709 2930 787 
Q 3166 866 3366 1019 
L 3366 103 
Q 3103 6 2833 -42 
Q 2563 -91 2291 -91 
Q 1344 -91 809 395 
Q 275 881 275 1747 
Q 275 2613 809 3098 
Q 1344 3584 2291 3584 
Q 2566 3584 2833 3536 
Q 3100 3488 3366 3391 
z
" transform="scale(0.015625)"/>
      <path id="DejaVuSans-Bold-69" d="M 538 3500 
L 1656 3500 
L 1656 0 
L 538 0 
L 538 3500 
z
M 538 4863 
L 1656 4863 
L 1656 3950 
L 538 3950 
L 538 4863 
z
" transform="scale(0.015625)"/>
      <path id="DejaVuSans-Bold-74" d="M 1759 4494 
L 1759 3500 
L 2913 3500 
L 2913 2700 
L 1759 2700 
L 1759 1216 
Q 1759 972 1856 886 
Q 1953 800 2241 800 
L 2816 800 
L 2816 0 
L 1856 0 
Q 1194 0 917 276 
Q 641 553 641 1216 
L 641 2700 
L 84 2700 
L 84 3500 
L 641 3500 
L 641 4494 
L 1759 4494 
z
" transform="scale(0.015625)"/>
      <path id="DejaVuSans-Bold-20" transform="scale(0.015625)"/>
      <path id="DejaVuSans-Bold-61" d="M 2106 1575 
Q 1756 1575 1579 1456 
Q 1403 1338 1403 1106 
Q 1403 894 1545 773 
Q 1688 653 1941 653 
Q 2256 653 2472 879 
Q 2688 1106 2688 1447 
L 2688 1575 
L 2106 1575 
z
M 3816 1997 
L 3816 0 
L 2688 0 
L 2688 519 
Q 2463 200 2181 54 
Q 1900 -91 1497 -91 
Q 953 -91 614 226 
Q 275 544 275 1050 
Q 275 1666 698 1953 
Q 1122 2241 2028 2241 
L 2688 2241 
L 2688 2328 
Q 2688 2594 2478 2717 
Q 2269 2841 1825 2841 
Q 1466 2841 1156 2769 
Q 847 2697 581 2553 
L 581 3406 
Q 941 3494 1303 3539 
Q 1666 3584 2028 3584 
Q 2975 3584 3395 3211 
Q 3816 2838 3816 1997 
z
" transform="scale(0.015625)"/>
      <path id="DejaVuSans-Bold-72" d="M 3138 2547 
Q 2991 2616 2845 2648 
Q 2700 2681 2553 2681 
Q 2122 2681 1889 2404 
Q 1656 2128 1656 1613 
L 1656 0 
L 538 0 
L 538 3500 
L 1656 3500 
L 1656 2925 
Q 1872 3269 2151 3426 
Q 2431 3584 2822 3584 
Q 2878 3584 2943 3579 
Q 3009 3575 3134 3559 
L 3138 2547 
z
" transform="scale(0.015625)"/>
      <path id="DejaVuSans-Bold-6e" d="M 4056 2131 
L 4056 0 
L 2931 0 
L 2931 347 
L 2931 1631 
Q 2931 2084 2911 2256 
Q 2891 2428 2841 2509 
Q 2775 2619 2662 2680 
Q 2550 2741 2406 2741 
Q 2056 2741 1856 2470 
Q 1656 2200 1656 1722 
L 1656 0 
L 538 0 
L 538 3500 
L 1656 3500 
L 1656 2988 
Q 1909 3294 2193 3439 
Q 2478 3584 2822 3584 
Q 3428 3584 3742 3212 
Q 4056 2841 4056 2131 
z
" transform="scale(0.015625)"/>
      <path id="DejaVuSans-Bold-28" d="M 2413 -844 
L 1484 -844 
Q 1006 -72 778 623 
Q 550 1319 550 2003 
Q 550 2688 779 3389 
Q 1009 4091 1484 4856 
L 2413 4856 
Q 2013 4116 1813 3408 
Q 1613 2700 1613 2009 
Q 1613 1319 1811 609 
Q 2009 -100 2413 -844 
z
" transform="scale(0.015625)"/>
      <path id="DejaVuSans-Bold-78" d="M 1422 1791 
L 159 3500 
L 1344 3500 
L 2059 2463 
L 2784 3500 
L 3969 3500 
L 2706 1797 
L 4031 0 
L 2847 0 
L 2059 1106 
L 1281 0 
L 97 0 
L 1422 1791 
z
" transform="scale(0.015625)"/>
      <path id="DejaVuSans-Bold-3d" d="M 678 3084 
L 4684 3084 
L 4684 2350 
L 678 2350 
L 678 3084 
z
M 678 1663 
L 4684 1663 
L 4684 922 
L 678 922 
L 678 1663 
z
" transform="scale(0.015625)"/>
      <path id="DejaVuSans-Bold-30" d="M 2944 2338 
Q 2944 3213 2780 3570 
Q 2616 3928 2228 3928 
Q 1841 3928 1675 3570 
Q 1509 3213 1509 2338 
Q 1509 1453 1675 1090 
Q 1841 728 2228 728 
Q 2613 728 2778 1090 
Q 2944 1453 2944 2338 
z
M 4147 2328 
Q 4147 1169 3647 539 
Q 3147 -91 2228 -91 
Q 1306 -91 806 539 
Q 306 1169 306 2328 
Q 306 3491 806 4120 
Q 1306 4750 2228 4750 
Q 3147 4750 3647 4120 
Q 4147 3491 4147 2328 
z
" transform="scale(0.015625)"/>
      <path id="DejaVuSans-Bold-2e" d="M 653 1209 
L 1778 1209 
L 1778 0 
L 653 0 
L 653 1209 
z
" transform="scale(0.015625)"/>
      <path id="DejaVuSans-Bold-35" d="M 678 4666 
L 3669 4666 
L 3669 3781 
L 1638 3781 
L 1638 3059 
Q 1775 3097 1914 3117 
Q 2053 3138 2203 3138 
Q 3056 3138 3531 2711 
Q 4006 2284 4006 1522 
Q 4006 766 3489 337 
Q 2972 -91 2053 -91 
Q 1656 -91 1267 -14 
Q 878 63 494 219 
L 494 1166 
Q 875 947 1217 837 
Q 1559 728 1863 728 
Q 2300 728 2551 942 
Q 2803 1156 2803 1522 
Q 2803 1891 2551 2103 
Q 2300 2316 1863 2316 
Q 1603 2316 1309 2248 
Q 1016 2181 678 2041 
L 678 4666 
z
" transform="scale(0.015625)"/>
      <path id="DejaVuSans-Bold-29" d="M 513 -844 
Q 913 -100 1113 609 
Q 1313 1319 1313 2009 
Q 1313 2700 1113 3408 
Q 913 4116 513 4856 
L 1441 4856 
Q 1916 4091 2145 3389 
Q 2375 2688 2375 2003 
Q 2375 1319 2147 623 
Q 1919 -72 1441 -844 
L 513 -844 
z
" transform="scale(0.015625)"/>
     </defs>
     <use xlink:href="#DejaVuSans-Bold-75"/>
     <use xlink:href="#DejaVuSans-Bold-2d" transform="translate(71.191406 0)"/>
     <use xlink:href="#DejaVuSans-Bold-76" transform="translate(112.695312 0)"/>
     <use xlink:href="#DejaVuSans-Bold-65" transform="translate(177.880859 0)"/>
     <use xlink:href="#DejaVuSans-Bold-6c" transform="translate(245.703125 0)"/>
     <use xlink:href="#DejaVuSans-Bold-6f" transform="translate(279.980469 0)"/>
     <use xlink:href="#DejaVuSans-Bold-63" transform="translate(348.681641 0)"/>
     <use xlink:href="#DejaVuSans-Bold-69" transform="translate(407.958984 0)"/>
     <use xlink:href="#DejaVuSans-Bold-74" transform="translate(442.236328 0)"/>
     <use xlink:href="#DejaVuSans-Bold-79" transform="translate(490.039062 0)"/>
     <use xlink:href="#DejaVuSans-Bold-20" transform="translate(555.224609 0)"/>
     <use xlink:href="#DejaVuSans-Bold-61" transform="translate(590.039062 0)"/>
     <use xlink:href="#DejaVuSans-Bold-74" transform="translate(657.519531 0)"/>
     <use xlink:href="#DejaVuSans-Bold-20" transform="translate(705.322266 0)"/>
     <use xlink:href="#DejaVuSans-Bold-76" transform="translate(740.136719 0)"/>
     <use xlink:href="#DejaVuSans-Bold-65" transform="translate(805.322266 0)"/>
     <use xlink:href="#DejaVuSans-Bold-72" transform="translate(873.144531 0)"/>
     <use xlink:href="#DejaVuSans-Bold-74" transform="translate(922.460938 0)"/>
     <use xlink:href="#DejaVuSans-Bold-69" transform="translate(970.263672 0)"/>
     <use xlink:href="#DejaVuSans-Bold-63" transform="translate(1004.541016 0)"/>
     <use xlink:href="#DejaVuSans-Bold-61" transform="translate(1063.818359 0)"/>
     <use xlink:href="#DejaVuSans-Bold-6c" transform="translate(1131.298828 0)"/>
     <use xlink:href="#DejaVuSans-Bold-20" transform="translate(1165.576172 0)"/>
     <use xlink:href="#DejaVuSans-Bold-63" transform="translate(1200.390625 0)"/>
     <use xlink:href="#DejaVuSans-Bold-65" transform="translate(1259.667969 0)"/>
     <use xlink:href="#DejaVuSans-Bold-6e" transform="translate(1327.490234 0)"/>
     <use xlink:href="#DejaVuSans-Bold-74" transform="translate(1398.681641 0)"/>
     <use xlink:href="#DejaVuSans-Bold-65" transform="translate(1446.484375 0)"/>
     <use xlink:href="#DejaVuSans-Bold-72" transform="translate(1514.306641 0)"/>
     <use xlink:href="#DejaVuSans-Bold-6c" transform="translate(1563.623047 0)"/>
     <use xlink:href="#DejaVuSans-Bold-69" transform="translate(1597.900391 0)"/>
     <use xlink:href="#DejaVuSans-Bold-6e" transform="translate(1632.177734 0)"/>
     <use xlink:href="#DejaVuSans-Bold-65" transform="translate(1703.369141 0)"/>
     <use xlink:href="#DejaVuSans-Bold-20" transform="translate(1771.191406 0)"/>
     <use xlink:href="#DejaVuSans-Bold-28" transform="translate(1806.005859 0)"/>
     <use xlink:href="#DejaVuSans-Bold-78" transform="translate(1851.708984 0)"/>
     <use xlink:href="#DejaVuSans-Bold-3d" transform="translate(1916.210938 0)"/>
     <use xlink:href="#DejaVuSans-Bold-30" transform="translate(2000 0)"/>
     <use xlink:href="#DejaVuSans-Bold-2e" transform="translate(2069.580078 0)"/>
     <use xlink:href="#DejaVuSans-Bold-35" transform="translate(2107.568359 0)"/>
     <use xlink:href="#DejaVuSans-Bold-29" transform="translate(2177.148438 0)"/>
    </g>
    <!-- Grid: 129×129 -->
    <g transform="translate(250.151563 31.736687) scale(0.13 -0.13)">
     <defs>
      <path id="DejaVuSans-Bold-47" d="M 4781 347 
Q 4331 128 3847 18 
Q 3363 -91 2847 -91 
Q 1681 -91 1000 561 
Q 319 1213 319 2328 
Q 319 3456 1012 4103 
Q 1706 4750 2913 4750 
Q 3378 4750 3804 4662 
Q 4231 4575 4609 4403 
L 4609 3438 
Q 4219 3659 3833 3768 
Q 3447 3878 3059 3878 
Q 2341 3878 1952 3476 
Q 1563 3075 1563 2328 
Q 1563 1588 1938 1184 
Q 2313 781 3003 781 
Q 3191 781 3352 804 
Q 3513 828 3641 878 
L 3641 1784 
L 2906 1784 
L 2906 2591 
L 4781 2591 
L 4781 347 
z
" transform="scale(0.015625)"/>
      <path id="DejaVuSans-Bold-64" d="M 2919 2988 
L 2919 4863 
L 4044 4863 
L 4044 0 
L 2919 0 
L 2919 506 
Q 2688 197 2409 53 
Q 2131 -91 1766 -91 
Q 1119 -91 703 423 
Q 288 938 288 1747 
Q 288 2556 703 3070 
Q 1119 3584 1766 3584 
Q 2128 3584 2408 3439 
Q 2688 3294 2919 2988 
z
M 2181 722 
Q 2541 722 2730 984 
Q 2919 1247 2919 1747 
Q 2919 2247 2730 2509 
Q 2541 2772 2181 2772 
Q 1825 2772 1636 2509 
Q 1447 2247 1447 1747 
Q 1447 1247 1636 984 
Q 1825 722 2181 722 
z
" transform="scale(0.015625)"/>
      <path id="DejaVuSans-Bold-3a" d="M 716 3500 
L 1844 3500 
L 1844 2291 
L 716 2291 
L 716 3500 
z
M 716 1209 
L 1844 1209 
L 1844 0 
L 716 0 
L 716 1209 
z
" transform="scale(0.015625)"/>
      <path id="DejaVuSans-Bold-31" d="M 750 831 
L 1813 831 
L 1813 3847 
L 722 3622 
L 722 4441 
L 1806 4666 
L 2950 4666 
L 2950 831 
L 4013 831 
L 4013 0 
L 750 0 
L 750 831 
z
" transform="scale(0.015625)"/>
      <path id="DejaVuSans-Bold-32" d="M 1844 884 
L 3897 884 
L 3897 0 
L 506 0 
L 506 884 
L 2209 2388 
Q 2438 2594 2547 2791 
Q 2656 2988 2656 3200 
Q 2656 3528 2436 3728 
Q 2216 3928 1850 3928 
Q 1569 3928 1234 3808 
Q 900 3688 519 3450 
L 519 4475 
Q 925 4609 1322 4679 
Q 1719 4750 2100 4750 
Q 2938 4750 3402 4381 
Q 3866 4013 3866 3353 
Q 3866 2972 3669 2642 
Q 3472 2313 2841 1759 
L 1844 884 
z
" transform="scale(0.015625)"/>
      <path id="DejaVuSans-Bold-39" d="M 641 103 
L 641 966 
Q 928 831 1190 764 
Q 1453 697 1709 697 
Q 2247 697 2547 995 
Q 2847 1294 2900 1881 
Q 2688 1725 2447 1647 
Q 2206 1569 1925 1569 
Q 1209 1569 770 1986 
Q 331 2403 331 3084 
Q 331 3838 820 4291 
Q 1309 4744 2131 4744 
Q 3044 4744 3544 4128 
Q 4044 3513 4044 2388 
Q 4044 1231 3459 570 
Q 2875 -91 1856 -91 
Q 1528 -91 1228 -42 
Q 928 6 641 103 
z
M 2125 2350 
Q 2441 2350 2600 2554 
Q 2759 2759 2759 3169 
Q 2759 3575 2600 3781 
Q 2441 3988 2125 3988 
Q 1809 3988 1650 3781 
Q 1491 3575 1491 3169 
Q 1491 2759 1650 2554 
Q 1809 2350 2125 2350 
z
" transform="scale(0.015625)"/>
      <path id="DejaVuSans-Bold-d7" d="M 4563 3359 
L 3206 2003 
L 4563 653 
L 4038 128 
L 2681 1478 
L 1325 128 
L 800 653 
L 2156 2003 
L 800 3359 
L 1325 3884 
L 2681 2528 
L 4038 3884 
L 4563 3359 
z
" transform="scale(0.015625)"/>
     </defs>
     <use xlink:href="#DejaVuSans-Bold-47"/>
     <use xlink:href="#DejaVuSans-Bold-72" transform="translate(82.080078 0)"/>
     <use xlink:href="#DejaVuSans-Bold-69" transform="translate(131.396484 0)"/>
     <use xlink:href="#DejaVuSans-Bold-64" transform="translate(165.673828 0)"/>
     <use xlink:href="#DejaVuSans-Bold-3a" transform="translate(237.255859 0)"/>
     <use xlink:href="#DejaVuSans-Bold-20" transform="translate(277.246094 0)"/>
     <use xlink:href="#DejaVuSans-Bold-31" transform="translate(312.060547 0)"/>
     <use xlink:href="#DejaVuSans-Bold-32" transform="translate(381.640625 0)"/>
     <use xlink:href="#DejaVuSans-Bold-39" transform="translate(451.220703 0)"/>
     <use xlink:href="#DejaVuSans-Bold-d7" transform="translate(520.800781 0)"/>
     <use xlink:href="#DejaVuSans-Bold-31" transform="translate(604.589844 0)"/>
     <use xlink:href="#DejaVuSans-Bold-32" transform="translate(674.169922 0)"/>
     <use xlink:href="#DejaVuSans-Bold-39" transform="translate(743.75 0)"/>
    </g>
   </g>
   <g id="legend_1">
    <g id="patch_7">
     <path d="M 52.716875 89.771062 
L 131.198125 89.771062 
Q 133.198125 89.771062 133.198125 87.771062 
L 133.198125 44.736687 
Q 133.198125 42.736687 131.198125 42.736687 
L 52.716875 42.736687 
Q 50.716875 42.736687 50.716875 44.736687 
L 50.716875 87.771062 
Q 50.716875 89.771062 52.716875 89.771062 
z
" style="fill: #ffffff; opacity: 0.8; stroke: #cccccc; stroke-linejoin: miter"/>
    </g>
    <g id="line2d_32">
     <path d="M 54.716875 50.835125 
L 64.716875 50.835125 
L 74.716875 50.835125 
" style="fill: none; stroke: #1f77b4; stroke-width: 2; stroke-linecap: square"/>
     <g>
      <use xlink:href="#mac674a7489" x="64.716875" y="50.835125" style="fill: #1f77b4; stroke: #1f77b4"/>
     </g>
    </g>
    <g id="text_18">
     <!-- Re=100 -->
     <g transform="translate(82.716875 54.335125) scale(0.1 -0.1)">
      <defs>
       <path id="DejaVuSans-52" d="M 2841 2188 
Q 3044 2119 3236 1894 
Q 3428 1669 3622 1275 
L 4263 0 
L 3584 0 
L 2988 1197 
Q 2756 1666 2539 1819 
Q 2322 1972 1947 1972 
L 1259 1972 
L 1259 0 
L 628 0 
L 628 4666 
L 2053 4666 
Q 2853 4666 3247 4331 
Q 3641 3997 3641 3322 
Q 3641 2881 3436 2590 
Q 3231 2300 2841 2188 
z
M 1259 4147 
L 1259 2491 
L 2053 2491 
Q 2509 2491 2742 2702 
Q 2975 2913 2975 3322 
Q 2975 3731 2742 3939 
Q 2509 4147 2053 4147 
L 1259 4147 
z
" transform="scale(0.015625)"/>
       <path id="DejaVuSans-65" d="M 3597 1894 
L 3597 1613 
L 953 1613 
Q 991 1019 1311 708 
Q 1631 397 2203 397 
Q 2534 397 2845 478 
Q 3156 559 3463 722 
L 3463 178 
Q 3153 47 2828 -22 
Q 2503 -91 2169 -91 
Q 1331 -91 842 396 
Q 353 884 353 1716 
Q 353 2575 817 3079 
Q 1281 3584 2069 3584 
Q 2775 3584 3186 3129 
Q 3597 2675 3597 1894 
z
M 3022 2063 
Q 3016 2534 2758 2815 
Q 2500 3097 2075 3097 
Q 1594 3097 1305 2825 
Q 1016 2553 972 2059 
L 3022 2063 
z
" transform="scale(0.015625)"/>
       <path id="DejaVuSans-3d" d="M 678 2906 
L 4684 2906 
L 4684 2381 
L 678 2381 
L 678 2906 
z
M 678 1631 
L 4684 1631 
L 4684 1100 
L 678 1100 
L 678 1631 
z
" transform="scale(0.015625)"/>
      </defs>
      <use xlink:href="#DejaVuSans-52"/>
      <use xlink:href="#DejaVuSans-65" transform="translate(64.982422 0)"/>
      <use xlink:href="#DejaVuSans-3d" transform="translate(126.505859 0)"/>
      <use xlink:href="#DejaVuSans-31" transform="translate(210.294922 0)"/>
      <use xlink:href="#DejaVuSans-30" transform="translate(273.917969 0)"/>
      <use xlink:href="#DejaVuSans-30" transform="translate(337.541016 0)"/>
     </g>
    </g>
    <g id="line2d_33">
     <path d="M 54.716875 65.51325 
L 64.716875 65.51325 
L 74.716875 65.51325 
" style="fill: none; stroke: #ff7f0e; stroke-width: 2; stroke-linecap: square"/>
     <g>
      <use xlink:href="#m1ba675700d" x="64.716875" y="65.51325" style="fill: #ff7f0e; stroke: #ff7f0e"/>
     </g>
    </g>
    <g id="text_19">
     <!-- Re=400 -->
     <g transform="translate(82.716875 69.01325) scale(0.1 -0.1)">
      <use xlink:href="#DejaVuSans-52"/>
      <use xlink:href="#DejaVuSans-65" transform="translate(64.982422 0)"/>
      <use xlink:href="#DejaVuSans-3d" transform="translate(126.505859 0)"/>
      <use xlink:href="#DejaVuSans-34" transform="translate(210.294922 0)"/>
      <use xlink:href="#DejaVuSans-30" transform="translate(273.917969 0)"/>
      <use xlink:href="#DejaVuSans-30" transform="translate(337.541016 0)"/>
     </g>
    </g>
    <g id="line2d_34">
     <path d="M 54.716875 80.191375 
L 64.716875 80.191375 
L 74.716875 80.191375 
" style="fill: none; stroke: #2ca02c; stroke-width: 2; stroke-linecap: square"/>
     <g>
      <use xlink:href="#m2ff470f91e" x="64.716875" y="80.191375" style="fill: #2ca02c; stroke: #2ca02c"/>
     </g>
    </g>
    <g id="text_20">
     <!-- Re=1000 -->
     <g transform="translate(82.716875 83.691375) scale(0.1 -0.1)">
      <use xlink:href="#DejaVuSans-52"/>
      <use xlink:href="#DejaVuSans-65" transform="translate(64.982422 0)"/>
      <use xlink:href="#DejaVuSans-3d" transform="translate(126.505859 0)"/>
      <use xlink:href="#DejaVuSans-31" transform="translate(210.294922 0)"/>
      <use xlink:href="#DejaVuSans-30" transform="translate(273.917969 0)"/>
      <use xlink:href="#DejaVuSans-30" transform="translate(337.541016 0)"/>
      <use xlink:href="#DejaVuSans-30" transform="translate(401.164062 0)"/>
     </g>
    </g>
   </g>
  </g>
 </g>
 <defs>
  <clipPath id="p72386d05f0">
   <rect x="45.716875" y="37.736687" width="514.6" height="633.304"/>
  </clipPath>
 </defs>
</svg>
