<?xml version="1.0" encoding="utf-8" standalone="no"?>
<!DOCTYPE svg PUBLIC "-//W3C//DTD SVG 1.1//EN"
  "http://www.w3.org/Graphics/SVG/1.1/DTD/svg11.dtd">
<svg xmlns:xlink="http://www.w3.org/1999/xlink" width="711.616562pt" height="422.532563pt" viewBox="0 0 711.616562 422.532563" xmlns="http://www.w3.org/2000/svg" version="1.1">
 <metadata>
  <rdf:RDF xmlns:dc="http://purl.org/dc/elements/1.1/" xmlns:cc="http://creativecommons.org/ns#" xmlns:rdf="http://www.w3.org/1999/02/22-rdf-syntax-ns#">
   <cc:Work>
    <dc:type rdf:resource="http://purl.org/dc/dcmitype/StillImage"/>
    <dc:date>2025-12-15T14:12:49.180677</dc:date>
    <dc:format>image/svg+xml</dc:format>
    <dc:creator>
     <cc:Agent>
      <dc:title>Matplotlib v3.10.8, https://matplotlib.org/</dc:title>
     </cc:Agent>
    </dc:creator>
   </cc:Work>
  </rdf:RDF>
 </metadata>
 <defs>
  <style type="text/css">*{stroke-linejoin: round; stroke-linecap: butt}</style>
 </defs>
 <g id="figure_1">
  <g id="patch_1">
   <path d="M 0 422.532563 
L 711.616562 422.532563 
L 711.616562 0 
L 0 0 
z
" style="fill: #ffffff"/>
  </g>
  <g id="axes_1">
   <g id="patch_2">
    <path d="M 54.096563 383.040688 
L 704.416562 383.040688 
L 704.416562 37.736687 
L 54.096563 37.736687 
z
" style="fill: #ffffff"/>
   </g>
   <g id="matplotlib.axis_1">
    <g id="xtick_1">
     <g id="line2d_1">
      <path d="M 83.656563 383.040688 
L 83.656563 37.736687 
" clip-path="url(#p9dd0ed7e56)" style="fill: none; stroke: #b0b0b0; stroke-opacity: 0.3; stroke-width: 0.8; stroke-linecap: square"/>
     </g>
     <g id="line2d_2">
      <defs>
       <path id="m2bb78cab2d" d="M 0 0 
L 0 3.5 
" style="stroke: #000000; stroke-width: 0.8"/>
      </defs>
      <g>
       <use xlink:href="#m2bb78cab2d" x="83.656563" y="383.040688" style="stroke: #000000; stroke-width: 0.8"/>
      </g>
     </g>
     <g id="text_1">
      <!-- 0.0 -->
      <g transform="translate(75.705 397.639125) scale(0.1 -0.1)">
       <defs>
        <path id="DejaVuSans-30" d="M 2034 4250 
Q 1547 4250 1301 3770 
Q 1056 3291 1056 2328 
Q 1056 1369 1301 889 
Q 1547 409 2034 409 
Q 2525 409 2770 889 
Q 3016 1369 3016 2328 
Q 3016 3291 2770 3770 
Q 2525 4250 2034 4250 
z
M 2034 4750 
Q 2819 4750 3233 4129 
Q 3647 3509 3647 2328 
Q 3647 1150 3233 529 
Q 2819 -91 2034 -91 
Q 1250 -91 836 529 
Q 422 1150 422 2328 
Q 422 3509 836 4129 
Q 1250 4750 2034 4750 
z
" transform="scale(0.015625)"/>
        <path id="DejaVuSans-2e" d="M 684 794 
L 1344 794 
L 1344 0 
L 684 0 
L 684 794 
z
" transform="scale(0.015625)"/>
       </defs>
       <use xlink:href="#DejaVuSans-30"/>
       <use xlink:href="#DejaVuSans-2e" transform="translate(63.623047 0)"/>
       <use xlink:href="#DejaVuSans-30" transform="translate(95.410156 0)"/>
      </g>
     </g>
    </g>
    <g id="xtick_2">
     <g id="line2d_3">
      <path d="M 201.896563 383.040688 
L 201.896563 37.736687 
" clip-path="url(#p9dd0ed7e56)" style="fill: none; stroke: #b0b0b0; stroke-opacity: 0.3; stroke-width: 0.8; stroke-linecap: square"/>
     </g>
     <g id="line2d_4">
      <g>
       <use xlink:href="#m2bb78cab2d" x="201.896563" y="383.040688" style="stroke: #000000; stroke-width: 0.8"/>
      </g>
     </g>
     <g id="text_2">
      <!-- 0.2 -->
      <g transform="translate(193.945 397.639125) scale(0.1 -0.1)">
       <defs>
        <path id="DejaVuSans-32" d="M 1228 531 
L 3431 531 
L 3431 0 
L 469 0 
L 469 531 
Q 828 903 1448 1529 
Q 2069 2156 2228 2338 
Q 2531 2678 2651 2914 
Q 2772 3150 2772 3378 
Q 2772 3750 2511 3984 
Q 2250 4219 1831 4219 
Q 1534 4219 1204 4116 
Q 875 4013 500 3803 
L 500 4441 
Q 881 4594 1212 4672 
Q 1544 4750 1819 4750 
Q 2544 4750 2975 4387 
Q 3406 4025 3406 3419 
Q 3406 3131 3298 2873 
Q 3191 2616 2906 2266 
Q 2828 2175 2409 1742 
Q 1991 1309 1228 531 
z
" transform="scale(0.015625)"/>
       </defs>
       <use xlink:href="#DejaVuSans-30"/>
       <use xlink:href="#DejaVuSans-2e" transform="translate(63.623047 0)"/>
       <use xlink:href="#DejaVuSans-32" transform="translate(95.410156 0)"/>
      </g>
     </g>
    </g>
    <g id="xtick_3">
     <g id="line2d_5">
      <path d="M 320.136563 383.040688 
L 320.136563 37.736687 
" clip-path="url(#p9dd0ed7e56)" style="fill: none; stroke: #b0b0b0; stroke-opacity: 0.3; stroke-width: 0.8; stroke-linecap: square"/>
     </g>
     <g id="line2d_6">
      <g>
       <use xlink:href="#m2bb78cab2d" x="320.136563" y="383.040688" style="stroke: #000000; stroke-width: 0.8"/>
      </g>
     </g>
     <g id="text_3">
      <!-- 0.4 -->
      <g transform="translate(312.185 397.639125) scale(0.1 -0.1)">
       <defs>
        <path id="DejaVuSans-34" d="M 2419 4116 
L 825 1625 
L 2419 1625 
L 2419 4116 
z
M 2253 4666 
L 3047 4666 
L 3047 1625 
L 3713 1625 
L 3713 1100 
L 3047 1100 
L 3047 0 
L 2419 0 
L 2419 1100 
L 313 1100 
L 313 1709 
L 2253 4666 
z
" transform="scale(0.015625)"/>
       </defs>
       <use xlink:href="#DejaVuSans-30"/>
       <use xlink:href="#DejaVuSans-2e" transform="translate(63.623047 0)"/>
       <use xlink:href="#DejaVuSans-34" transform="translate(95.410156 0)"/>
      </g>
     </g>
    </g>
    <g id="xtick_4">
     <g id="line2d_7">
      <path d="M 438.376563 383.040688 
L 438.376563 37.736687 
" clip-path="url(#p9dd0ed7e56)" style="fill: none; stroke: #b0b0b0; stroke-opacity: 0.3; stroke-width: 0.8; stroke-linecap: square"/>
     </g>
     <g id="line2d_8">
      <g>
       <use xlink:href="#m2bb78cab2d" x="438.376563" y="383.040688" style="stroke: #000000; stroke-width: 0.8"/>
      </g>
     </g>
     <g id="text_4">
      <!-- 0.6 -->
      <g transform="translate(430.425 397.639125) scale(0.1 -0.1)">
       <defs>
        <path id="DejaVuSans-36" d="M 2113 2584 
Q 1688 2584 1439 2293 
Q 1191 2003 1191 1497 
Q 1191 994 1439 701 
Q 1688 409 2113 409 
Q 2538 409 2786 701 
Q 3034 994 3034 1497 
Q 3034 2003 2786 2293 
Q 2538 2584 2113 2584 
z
M 3366 4563 
L 3366 3988 
Q 3128 4100 2886 4159 
Q 2644 4219 2406 4219 
Q 1781 4219 1451 3797 
Q 1122 3375 1075 2522 
Q 1259 2794 1537 2939 
Q 1816 3084 2150 3084 
Q 2853 3084 3261 2657 
Q 3669 2231 3669 1497 
Q 3669 778 3244 343 
Q 2819 -91 2113 -91 
Q 1303 -91 875 529 
Q 447 1150 447 2328 
Q 447 3434 972 4092 
Q 1497 4750 2381 4750 
Q 2619 4750 2861 4703 
Q 3103 4656 3366 4563 
z
" transform="scale(0.015625)"/>
       </defs>
       <use xlink:href="#DejaVuSans-30"/>
       <use xlink:href="#DejaVuSans-2e" transform="translate(63.623047 0)"/>
       <use xlink:href="#DejaVuSans-36" transform="translate(95.410156 0)"/>
      </g>
     </g>
    </g>
    <g id="xtick_5">
     <g id="line2d_9">
      <path d="M 556.616562 383.040688 
L 556.616562 37.736687 
" clip-path="url(#p9dd0ed7e56)" style="fill: none; stroke: #b0b0b0; stroke-opacity: 0.3; stroke-width: 0.8; stroke-linecap: square"/>
     </g>
     <g id="line2d_10">
      <g>
       <use xlink:href="#m2bb78cab2d" x="556.616562" y="383.040688" style="stroke: #000000; stroke-width: 0.8"/>
      </g>
     </g>
     <g id="text_5">
      <!-- 0.8 -->
      <g transform="translate(548.665 397.639125) scale(0.1 -0.1)">
       <defs>
        <path id="DejaVuSans-38" d="M 2034 2216 
Q 1584 2216 1326 1975 
Q 1069 1734 1069 1313 
Q 1069 891 1326 650 
Q 1584 409 2034 409 
Q 2484 409 2743 651 
Q 3003 894 3003 1313 
Q 3003 1734 2745 1975 
Q 2488 2216 2034 2216 
z
M 1403 2484 
Q 997 2584 770 2862 
Q 544 3141 544 3541 
Q 544 4100 942 4425 
Q 1341 4750 2034 4750 
Q 2731 4750 3128 4425 
Q 3525 4100 3525 3541 
Q 3525 3141 3298 2862 
Q 3072 2584 2669 2484 
Q 3125 2378 3379 2068 
Q 3634 1759 3634 1313 
Q 3634 634 3220 271 
Q 2806 -91 2034 -91 
Q 1263 -91 848 271 
Q 434 634 434 1313 
Q 434 1759 690 2068 
Q 947 2378 1403 2484 
z
M 1172 3481 
Q 1172 3119 1398 2916 
Q 1625 2713 2034 2713 
Q 2441 2713 2670 2916 
Q 2900 3119 2900 3481 
Q 2900 3844 2670 4047 
Q 2441 4250 2034 4250 
Q 1625 4250 1398 4047 
Q 1172 3844 1172 3481 
z
" transform="scale(0.015625)"/>
       </defs>
       <use xlink:href="#DejaVuSans-30"/>
       <use xlink:href="#DejaVuSans-2e" transform="translate(63.623047 0)"/>
       <use xlink:href="#DejaVuSans-38" transform="translate(95.410156 0)"/>
      </g>
     </g>
    </g>
    <g id="xtick_6">
     <g id="line2d_11">
      <path d="M 674.856563 383.040688 
L 674.856563 37.736687 
" clip-path="url(#p9dd0ed7e56)" style="fill: none; stroke: #b0b0b0; stroke-opacity: 0.3; stroke-width: 0.8; stroke-linecap: square"/>
     </g>
     <g id="line2d_12">
      <g>
       <use xlink:href="#m2bb78cab2d" x="674.856563" y="383.040688" style="stroke: #000000; stroke-width: 0.8"/>
      </g>
     </g>
     <g id="text_6">
      <!-- 1.0 -->
      <g transform="translate(666.905 397.639125) scale(0.1 -0.1)">
       <defs>
        <path id="DejaVuSans-31" d="M 794 531 
L 1825 531 
L 1825 4091 
L 703 3866 
L 703 4441 
L 1819 4666 
L 2450 4666 
L 2450 531 
L 3481 531 
L 3481 0 
L 794 0 
L 794 531 
z
" transform="scale(0.015625)"/>
       </defs>
       <use xlink:href="#DejaVuSans-31"/>
       <use xlink:href="#DejaVuSans-2e" transform="translate(63.623047 0)"/>
       <use xlink:href="#DejaVuSans-30" transform="translate(95.410156 0)"/>
      </g>
     </g>
    </g>
    <g id="text_7">
     <!-- x -->
     <g transform="translate(375.386562 412.836938) scale(0.12 -0.12)">
      <defs>
       <path id="DejaVuSans-Bold-78" d="M 1422 1791 
L 159 3500 
L 1344 3500 
L 2059 2463 
L 2784 3500 
L 3969 3500 
L 2706 1797 
L 4031 0 
L 2847 0 
L 2059 1106 
L 1281 0 
L 97 0 
L 1422 1791 
z
" transform="scale(0.015625)"/>
      </defs>
      <use xlink:href="#DejaVuSans-Bold-78"/>
     </g>
    </g>
   </g>
   <g id="matplotlib.axis_2">
    <g id="ytick_1">
     <g id="line2d_13">
      <path d="M 54.096563 327.835317 
L 704.416562 327.835317 
" clip-path="url(#p9dd0ed7e56)" style="fill: none; stroke: #b0b0b0; stroke-opacity: 0.3; stroke-width: 0.8; stroke-linecap: square"/>
     </g>
     <g id="line2d_14">
      <defs>
       <path id="me3e2afa074" d="M 0 0 
L -3.5 0 
" style="stroke: #000000; stroke-width: 0.8"/>
      </defs>
      <g>
       <use xlink:href="#me3e2afa074" x="54.096563" y="327.835317" style="stroke: #000000; stroke-width: 0.8"/>
      </g>
     </g>
     <g id="text_8">
      <!-- −0.4 -->
      <g transform="translate(22.81375 331.634535) scale(0.1 -0.1)">
       <defs>
        <path id="DejaVuSans-2212" d="M 678 2272 
L 4684 2272 
L 4684 1741 
L 678 1741 
L 678 2272 
z
" transform="scale(0.015625)"/>
       </defs>
       <use xlink:href="#DejaVuSans-2212"/>
       <use xlink:href="#DejaVuSans-30" transform="translate(83.789062 0)"/>
       <use xlink:href="#DejaVuSans-2e" transform="translate(147.412109 0)"/>
       <use xlink:href="#DejaVuSans-34" transform="translate(179.199219 0)"/>
      </g>
     </g>
    </g>
    <g id="ytick_2">
     <g id="line2d_15">
      <path d="M 54.096563 255.929523 
L 704.416562 255.929523 
" clip-path="url(#p9dd0ed7e56)" style="fill: none; stroke: #b0b0b0; stroke-opacity: 0.3; stroke-width: 0.8; stroke-linecap: square"/>
     </g>
     <g id="line2d_16">
      <g>
       <use xlink:href="#me3e2afa074" x="54.096563" y="255.929523" style="stroke: #000000; stroke-width: 0.8"/>
      </g>
     </g>
     <g id="text_9">
      <!-- −0.2 -->
      <g transform="translate(22.81375 259.728742) scale(0.1 -0.1)">
       <use xlink:href="#DejaVuSans-2212"/>
       <use xlink:href="#DejaVuSans-30" transform="translate(83.789062 0)"/>
       <use xlink:href="#DejaVuSans-2e" transform="translate(147.412109 0)"/>
       <use xlink:href="#DejaVuSans-32" transform="translate(179.199219 0)"/>
      </g>
     </g>
    </g>
    <g id="ytick_3">
     <g id="line2d_17">
      <path d="M 54.096563 184.02373 
L 704.416562 184.02373 
" clip-path="url(#p9dd0ed7e56)" style="fill: none; stroke: #b0b0b0; stroke-opacity: 0.3; stroke-width: 0.8; stroke-linecap: square"/>
     </g>
     <g id="line2d_18">
      <g>
       <use xlink:href="#me3e2afa074" x="54.096563" y="184.02373" style="stroke: #000000; stroke-width: 0.8"/>
      </g>
     </g>
     <g id="text_10">
      <!-- 0.0 -->
      <g transform="translate(31.193438 187.822949) scale(0.1 -0.1)">
       <use xlink:href="#DejaVuSans-30"/>
       <use xlink:href="#DejaVuSans-2e" transform="translate(63.623047 0)"/>
       <use xlink:href="#DejaVuSans-30" transform="translate(95.410156 0)"/>
      </g>
     </g>
    </g>
    <g id="ytick_4">
     <g id="line2d_19">
      <path d="M 54.096563 112.117937 
L 704.416562 112.117937 
" clip-path="url(#p9dd0ed7e56)" style="fill: none; stroke: #b0b0b0; stroke-opacity: 0.3; stroke-width: 0.8; stroke-linecap: square"/>
     </g>
     <g id="line2d_20">
      <g>
       <use xlink:href="#me3e2afa074" x="54.096563" y="112.117937" style="stroke: #000000; stroke-width: 0.8"/>
      </g>
     </g>
     <g id="text_11">
      <!-- 0.2 -->
      <g transform="translate(31.193438 115.917156) scale(0.1 -0.1)">
       <use xlink:href="#DejaVuSans-30"/>
       <use xlink:href="#DejaVuSans-2e" transform="translate(63.623047 0)"/>
       <use xlink:href="#DejaVuSans-32" transform="translate(95.410156 0)"/>
      </g>
     </g>
    </g>
    <g id="ytick_5">
     <g id="line2d_21">
      <path d="M 54.096563 40.212144 
L 704.416562 40.212144 
" clip-path="url(#p9dd0ed7e56)" style="fill: none; stroke: #b0b0b0; stroke-opacity: 0.3; stroke-width: 0.8; stroke-linecap: square"/>
     </g>
     <g id="line2d_22">
      <g>
       <use xlink:href="#me3e2afa074" x="54.096563" y="40.212144" style="stroke: #000000; stroke-width: 0.8"/>
      </g>
     </g>
     <g id="text_12">
      <!-- 0.4 -->
      <g transform="translate(31.193438 44.011363) scale(0.1 -0.1)">
       <use xlink:href="#DejaVuSans-30"/>
       <use xlink:href="#DejaVuSans-2e" transform="translate(63.623047 0)"/>
       <use xlink:href="#DejaVuSans-34" transform="translate(95.410156 0)"/>
      </g>
     </g>
    </g>
    <g id="text_13">
     <!-- v -->
     <g transform="translate(16.318125 214.299937) rotate(-90) scale(0.12 -0.12)">
      <defs>
       <path id="DejaVuSans-Bold-76" d="M 97 3500 
L 1216 3500 
L 2088 1081 
L 2956 3500 
L 4078 3500 
L 2700 0 
L 1472 0 
L 97 3500 
z
" transform="scale(0.015625)"/>
      </defs>
      <use xlink:href="#DejaVuSans-Bold-76"/>
     </g>
    </g>
   </g>
   <g id="line2d_23">
    <path d="M 83.656563 184.02373 
L 88.275313 178.879076 
L 92.894063 174.003326 
L 97.512813 169.392474 
L 102.131563 165.041668 
L 106.750313 160.945325 
L 111.369063 157.097229 
L 115.987813 153.490633 
L 120.606562 150.118349 
L 125.225313 146.97284 
L 129.844063 144.046296 
L 134.462812 141.330721 
L 139.081563 138.818 
L 143.700312 136.49997 
L 148.319063 134.368484 
L 152.937813 132.415469 
L 157.556562 130.632979 
L 162.175313 129.013246 
L 166.794062 127.548718 
L 171.412813 126.232097 
L 176.031563 125.056378 
L 180.650312 124.014866 
L 185.269062 123.101207 
L 189.887812 122.3094 
L 199.125313 121.069186 
L 208.362812 120.253701 
L 217.600313 119.82851 
L 226.837812 119.765149 
L 236.075312 120.040839 
L 245.312812 120.638072 
L 254.550312 121.544106 
L 263.787812 122.750407 
L 273.025312 124.252064 
L 282.262812 126.0472 
L 291.500312 128.1364 
L 300.737813 130.522151 
L 309.975312 133.208319 
L 319.212812 136.199638 
L 328.450312 139.501233 
L 337.687812 143.118141 
L 346.925312 147.054843 
L 356.162812 151.31478 
L 365.400312 155.899849 
L 374.637812 160.809861 
L 383.875312 166.041951 
L 393.112812 171.589919 
L 402.350312 177.443498 
L 411.587812 183.58753 
L 420.825312 190.001048 
L 430.062812 196.656258 
L 443.919062 207.011597 
L 462.394062 221.25102 
L 480.869062 235.480734 
L 490.106562 242.367427 
L 499.344062 248.954457 
L 508.581562 255.114091 
L 513.200312 257.990353 
L 517.819062 260.706529 
L 522.437812 263.2437 
L 527.056562 265.582611 
L 531.675313 267.703826 
L 536.294062 269.587925 
L 540.912812 271.215712 
L 545.531562 272.568449 
L 550.150312 273.628114 
L 554.769063 274.377671 
L 559.387812 274.801357 
L 564.006562 274.88497 
L 568.625312 274.616169 
L 573.244062 273.984757 
L 577.862813 272.982959 
L 582.481562 271.605674 
L 587.100312 269.850704 
L 591.719062 267.718935 
L 596.337812 265.214486 
L 600.956563 262.344798 
L 605.575312 259.120671 
L 610.194062 255.556237 
L 614.812812 251.668877 
L 619.431562 247.479071 
L 624.050313 243.01019 
L 628.669062 238.288228 
L 633.287812 233.341495 
L 642.525312 222.89633 
L 651.762812 211.933093 
L 674.856562 184.02373 
L 674.856562 184.02373 
" clip-path="url(#p9dd0ed7e56)" style="fill: none; stroke: #1f77b4; stroke-width: 2; stroke-linecap: square"/>
    <defs>
     <path id="m3637543908" d="M 0 1.5 
C 0.397805 1.5 0.77937 1.341951 1.06066 1.06066 
C 1.341951 0.77937 1.5 0.397805 1.5 0 
C 1.5 -0.397805 1.341951 -0.77937 1.06066 -1.06066 
C 0.77937 -1.341951 0.397805 -1.5 0 -1.5 
C -0.397805 -1.5 -0.77937 -1.341951 -1.06066 -1.06066 
C -1.341951 -0.77937 -1.5 -0.397805 -1.5 0 
C -1.5 0.397805 -1.341951 0.77937 -1.06066 1.06066 
C -0.77937 1.341951 -0.397805 1.5 0 1.5 
z
" style="stroke: #1f77b4"/>
    </defs>
    <g clip-path="url(#p9dd0ed7e56)">
     <use xlink:href="#m3637543908" x="83.656563" y="184.02373" style="fill: #1f77b4; stroke: #1f77b4"/>
     <use xlink:href="#m3637543908" x="139.081563" y="138.818" style="fill: #1f77b4; stroke: #1f77b4"/>
     <use xlink:href="#m3637543908" x="194.506563" y="121.633811" style="fill: #1f77b4; stroke: #1f77b4"/>
     <use xlink:href="#m3637543908" x="249.931562" y="121.053114" style="fill: #1f77b4; stroke: #1f77b4"/>
     <use xlink:href="#m3637543908" x="305.356562" y="131.827402" style="fill: #1f77b4; stroke: #1f77b4"/>
     <use xlink:href="#m3637543908" x="360.781562" y="153.566629" style="fill: #1f77b4; stroke: #1f77b4"/>
     <use xlink:href="#m3637543908" x="416.206562" y="186.762168" style="fill: #1f77b4; stroke: #1f77b4"/>
     <use xlink:href="#m3637543908" x="471.631562" y="228.408562" style="fill: #1f77b4; stroke: #1f77b4"/>
     <use xlink:href="#m3637543908" x="527.056562" y="265.582611" style="fill: #1f77b4; stroke: #1f77b4"/>
     <use xlink:href="#m3637543908" x="582.481562" y="271.605674" style="fill: #1f77b4; stroke: #1f77b4"/>
     <use xlink:href="#m3637543908" x="637.906562" y="228.200253" style="fill: #1f77b4; stroke: #1f77b4"/>
    </g>
   </g>
   <g id="line2d_24">
    <path d="M 83.656563 184.02373 
L 88.275313 172.775983 
L 92.894063 162.51438 
L 97.512813 153.196526 
L 102.131563 144.774943 
L 106.750313 137.196393 
L 111.369063 130.402088 
L 115.987813 124.32865 
L 120.606562 118.909629 
L 125.225313 114.077374 
L 129.844063 109.765018 
L 134.462812 105.908394 
L 139.081563 102.447725 
L 143.700312 99.328982 
L 148.319063 96.504845 
L 152.937813 93.935249 
L 157.556562 91.587535 
L 162.175313 89.436259 
L 166.794062 87.462709 
L 171.412813 85.654223 
L 176.031563 84.00337 
L 180.650312 82.507065 
L 185.269062 81.16568 
L 189.887812 79.9822 
L 194.506563 78.96144 
L 199.125313 78.109362 
L 203.744062 77.43248 
L 208.362812 76.937378 
L 212.981562 76.630302 
L 217.600313 76.516849 
L 222.219062 76.60172 
L 226.837812 76.888538 
L 231.456562 77.379715 
L 236.075312 78.07637 
L 240.694063 78.978269 
L 245.312812 80.083818 
L 249.931562 81.39007 
L 254.550312 82.892764 
L 259.169062 84.586385 
L 263.787812 86.464252 
L 268.406562 88.518617 
L 273.025312 90.740788 
L 277.644063 93.12126 
L 282.262812 95.649858 
L 291.500312 101.108318 
L 300.737813 107.027237 
L 309.975312 113.316743 
L 319.212812 119.890441 
L 333.069062 130.113088 
L 356.162812 147.597553 
L 383.875312 168.564365 
L 406.969062 185.749415 
L 457.775312 223.300575 
L 471.631562 233.939627 
L 480.869062 241.298245 
L 490.106562 248.961719 
L 499.344062 257.02087 
L 508.581562 265.568968 
L 517.819062 274.686575 
L 527.056562 284.416321 
L 536.294062 294.725518 
L 545.531562 305.456513 
L 554.769063 316.268962 
L 559.387812 321.535616 
L 564.006562 326.585213 
L 568.625312 331.303269 
L 573.244062 335.559178 
L 577.862813 339.208591 
L 582.481562 342.097303 
L 587.100312 344.066733 
L 591.719062 344.960964 
L 596.337812 344.635089 
L 600.956563 342.964421 
L 605.575312 339.853914 
L 610.194062 335.246971 
L 614.812812 329.132751 
L 619.431562 321.551109 
L 624.050313 312.594485 
L 628.669062 302.406328 
L 633.287812 291.176021 
L 637.906562 279.130651 
L 647.144063 253.625994 
L 656.381562 228.027518 
L 661.000312 215.82851 
L 665.619062 204.319806 
L 670.237813 193.67452 
L 674.856562 184.02373 
L 674.856562 184.02373 
" clip-path="url(#p9dd0ed7e56)" style="fill: none; stroke: #ff7f0e; stroke-width: 2; stroke-linecap: square"/>
    <defs>
     <path id="mcd5fc36787" d="M 0 1.5 
C 0.397805 1.5 0.77937 1.341951 1.06066 1.06066 
C 1.341951 0.77937 1.5 0.397805 1.5 0 
C 1.5 -0.397805 1.341951 -0.77937 1.06066 -1.06066 
C 0.77937 -1.341951 0.397805 -1.5 0 -1.5 
C -0.397805 -1.5 -0.77937 -1.341951 -1.06066 -1.06066 
C -1.341951 -0.77937 -1.5 -0.397805 -1.5 0 
C -1.5 0.397805 -1.341951 0.77937 -1.06066 1.06066 
C -0.77937 1.341951 -0.397805 1.5 0 1.5 
z
" style="stroke: #ff7f0e"/>
    </defs>
    <g clip-path="url(#p9dd0ed7e56)">
     <use xlink:href="#mcd5fc36787" x="83.656563" y="184.02373" style="fill: #ff7f0e; stroke: #ff7f0e"/>
     <use xlink:href="#mcd5fc36787" x="139.081563" y="102.447725" style="fill: #ff7f0e; stroke: #ff7f0e"/>
     <use xlink:href="#mcd5fc36787" x="194.506563" y="78.96144" style="fill: #ff7f0e; stroke: #ff7f0e"/>
     <use xlink:href="#mcd5fc36787" x="249.931562" y="81.39007" style="fill: #ff7f0e; stroke: #ff7f0e"/>
     <use xlink:href="#mcd5fc36787" x="305.356562" y="110.131195" style="fill: #ff7f0e; stroke: #ff7f0e"/>
     <use xlink:href="#mcd5fc36787" x="360.781562" y="151.109604" style="fill: #ff7f0e; stroke: #ff7f0e"/>
     <use xlink:href="#mcd5fc36787" x="416.206562" y="192.557683" style="fill: #ff7f0e; stroke: #ff7f0e"/>
     <use xlink:href="#mcd5fc36787" x="471.631562" y="233.939627" style="fill: #ff7f0e; stroke: #ff7f0e"/>
     <use xlink:href="#mcd5fc36787" x="527.056562" y="284.416321" style="fill: #ff7f0e; stroke: #ff7f0e"/>
     <use xlink:href="#mcd5fc36787" x="582.481562" y="342.097303" style="fill: #ff7f0e; stroke: #ff7f0e"/>
     <use xlink:href="#mcd5fc36787" x="637.906562" y="279.130651" style="fill: #ff7f0e; stroke: #ff7f0e"/>
    </g>
   </g>
   <g id="line2d_25">
    <path d="M 83.656563 184.02373 
L 88.275313 164.861979 
L 92.894063 148.007909 
L 97.512813 133.399993 
L 102.131563 120.924658 
L 106.750313 110.394864 
L 111.369063 101.56009 
L 115.987813 94.135316 
L 120.606562 87.835883 
L 125.225313 82.407775 
L 129.844063 77.647277 
L 134.462812 73.408468 
L 139.081563 69.600404 
L 143.700312 66.177579 
L 148.319063 63.127508 
L 152.937813 60.458426 
L 157.556562 58.18893 
L 162.175313 56.340246 
L 166.794062 54.931026 
L 171.412813 53.974216 
L 176.031563 53.475429 
L 180.650312 53.432324 
L 185.269062 53.834668 
L 189.887812 54.664833 
L 194.506563 55.898592 
L 199.125313 57.506143 
L 203.744062 59.453275 
L 208.362812 61.702632 
L 212.981562 64.215016 
L 217.600313 66.950663 
L 222.219062 69.870437 
L 231.456562 76.115193 
L 245.312812 86.024352 
L 263.787812 99.333744 
L 277.644063 109.014883 
L 291.500312 118.378991 
L 305.356562 127.490232 
L 328.450312 142.350632 
L 420.825312 201.388925 
L 443.919062 216.470624 
L 467.012812 231.814386 
L 494.725312 250.534581 
L 536.294062 278.837625 
L 545.531562 285.40542 
L 550.150312 288.849179 
L 554.769063 292.460014 
L 559.387812 296.295654 
L 564.006562 300.42229 
L 568.625312 304.911073 
L 573.244062 309.831782 
L 577.862813 315.24287 
L 582.481562 321.177309 
L 587.100312 327.624099 
L 591.719062 334.506112 
L 600.956563 348.795056 
L 605.575312 355.516433 
L 610.194062 361.286193 
L 614.812812 365.462874 
L 619.431562 367.345051 
L 624.050313 366.2466 
L 628.669062 361.59343 
L 633.287812 353.02675 
L 637.906562 340.491227 
L 642.525312 324.285288 
L 647.144063 305.057294 
L 651.762812 283.744087 
L 661.000312 239.378392 
L 665.619062 218.569633 
L 670.237813 199.917734 
L 674.856562 184.02373 
L 674.856562 184.02373 
" clip-path="url(#p9dd0ed7e56)" style="fill: none; stroke: #2ca02c; stroke-width: 2; stroke-linecap: square"/>
    <defs>
     <path id="m5625560358" d="M 0 1.5 
C 0.397805 1.5 0.77937 1.341951 1.06066 1.06066 
C 1.341951 0.77937 1.5 0.397805 1.5 0 
C 1.5 -0.397805 1.341951 -0.77937 1.06066 -1.06066 
C 0.77937 -1.341951 0.397805 -1.5 0 -1.5 
C -0.397805 -1.5 -0.77937 -1.341951 -1.06066 -1.06066 
C -1.341951 -0.77937 -1.5 -0.397805 -1.5 0 
C -1.5 0.397805 -1.341951 0.77937 -1.06066 1.06066 
C -0.77937 1.341951 -0.397805 1.5 0 1.5 
z
" style="stroke: #2ca02c"/>
    </defs>
    <g clip-path="url(#p9dd0ed7e56)">
     <use xlink:href="#m5625560358" x="83.656563" y="184.02373" style="fill: #2ca02c; stroke: #2ca02c"/>
     <use xlink:href="#m5625560358" x="139.081563" y="69.600404" style="fill: #2ca02c; stroke: #2ca02c"/>
     <use xlink:href="#m5625560358" x="194.506563" y="55.898592" style="fill: #2ca02c; stroke: #2ca02c"/>
     <use xlink:href="#m5625560358" x="249.931562" y="89.372921" style="fill: #2ca02c; stroke: #2ca02c"/>
     <use xlink:href="#m5625560358" x="305.356562" y="127.490232" style="fill: #2ca02c; stroke: #2ca02c"/>
     <use xlink:href="#m5625560358" x="360.781562" y="162.931661" style="fill: #2ca02c; stroke: #2ca02c"/>
     <use xlink:href="#m5625560358" x="416.206562" y="198.399259" style="fill: #2ca02c; stroke: #2ca02c"/>
     <use xlink:href="#m5625560358" x="471.631562" y="234.915147" style="fill: #2ca02c; stroke: #2ca02c"/>
     <use xlink:href="#m5625560358" x="527.056562" y="272.487412" style="fill: #2ca02c; stroke: #2ca02c"/>
     <use xlink:href="#m5625560358" x="582.481562" y="321.177309" style="fill: #2ca02c; stroke: #2ca02c"/>
     <use xlink:href="#m5625560358" x="637.906562" y="340.491227" style="fill: #2ca02c; stroke: #2ca02c"/>
    </g>
   </g>
   <g id="patch_3">
    <path d="M 54.096563 383.040688 
L 54.096563 37.736687 
" style="fill: none; stroke: #000000; stroke-width: 0.8; stroke-linejoin: miter; stroke-linecap: square"/>
   </g>
   <g id="patch_4">
    <path d="M 704.416562 383.040688 
L 704.416562 37.736687 
" style="fill: none; stroke: #000000; stroke-width: 0.8; stroke-linejoin: miter; stroke-linecap: square"/>
   </g>
   <g id="patch_5">
    <path d="M 54.096563 383.040688 
L 704.416563 383.040688 
" style="fill: none; stroke: #000000; stroke-width: 0.8; stroke-linejoin: miter; stroke-linecap: square"/>
   </g>
   <g id="patch_6">
    <path d="M 54.096563 37.736687 
L 704.416563 37.736687 
" style="fill: none; stroke: #000000; stroke-width: 0.8; stroke-linejoin: miter; stroke-linecap: square"/>
   </g>
   <g id="text_14">
    <!-- v-velocity at horizontal centerline (y=0.5) -->
    <g transform="translate(225.645312 17.077969) scale(0.13 -0.13)">
     <defs>
      <path id="DejaVuSans-Bold-2d" d="M 347 2297 
L 2309 2297 
L 2309 1388 
L 347 1388 
L 347 2297 
z
" transform="scale(0.015625)"/>
      <path id="DejaVuSans-Bold-65" d="M 4031 1759 
L 4031 1441 
L 1416 1441 
Q 1456 1047 1700 850 
Q 1944 653 2381 653 
Q 2734 653 3104 758 
Q 3475 863 3866 1075 
L 3866 213 
Q 3469 63 3072 -14 
Q 2675 -91 2278 -91 
Q 1328 -91 801 392 
Q 275 875 275 1747 
Q 275 2603 792 3093 
Q 1309 3584 2216 3584 
Q 3041 3584 3536 3087 
Q 4031 2591 4031 1759 
z
M 2881 2131 
Q 2881 2450 2695 2645 
Q 2509 2841 2209 2841 
Q 1884 2841 1681 2658 
Q 1478 2475 1428 2131 
L 2881 2131 
z
" transform="scale(0.015625)"/>
      <path id="DejaVuSans-Bold-6c" d="M 538 4863 
L 1656 4863 
L 1656 0 
L 538 0 
L 538 4863 
z
" transform="scale(0.015625)"/>
      <path id="DejaVuSans-Bold-6f" d="M 2203 2784 
Q 1831 2784 1636 2517 
Q 1441 2250 1441 1747 
Q 1441 1244 1636 976 
Q 1831 709 2203 709 
Q 2569 709 2762 976 
Q 2956 1244 2956 1747 
Q 2956 2250 2762 2517 
Q 2569 2784 2203 2784 
z
M 2203 3584 
Q 3106 3584 3614 3096 
Q 4122 2609 4122 1747 
Q 4122 884 3614 396 
Q 3106 -91 2203 -91 
Q 1297 -91 786 396 
Q 275 884 275 1747 
Q 275 2609 786 3096 
Q 1297 3584 2203 3584 
z
" transform="scale(0.015625)"/>
      <path id="DejaVuSans-Bold-63" d="M 3366 3391 
L 3366 2478 
Q 3138 2634 2908 2709 
Q 2678 2784 2431 2784 
Q 1963 2784 1702 2511 
Q 1441 2238 1441 1747 
Q 1441 1256 1702 982 
Q 1963 709 2431 709 
Q 2694 709 2930 787 
Q 3166 866 3366 1019 
L 3366 103 
Q 3103 6 2833 -42 
Q 2563 -91 2291 -91 
Q 1344 -91 809 395 
Q 275 881 275 1747 
Q 275 2613 809 3098 
Q 1344 3584 2291 3584 
Q 2566 3584 2833 3536 
Q 3100 3488 3366 3391 
z
" transform="scale(0.015625)"/>
      <path id="DejaVuSans-Bold-69" d="M 538 3500 
L 1656 3500 
L 1656 0 
L 538 0 
L 538 3500 
z
M 538 4863 
L 1656 4863 
L 1656 3950 
L 538 3950 
L 538 4863 
z
" transform="scale(0.015625)"/>
      <path id="DejaVuSans-Bold-74" d="M 1759 4494 
L 1759 3500 
L 2913 3500 
L 2913 2700 
L 1759 2700 
L 1759 1216 
Q 1759 972 1856 886 
Q 1953 800 2241 800 
L 2816 800 
L 2816 0 
L 1856 0 
Q 1194 0 917 276 
Q 641 553 641 1216 
L 641 2700 
L 84 2700 
L 84 3500 
L 641 3500 
L 641 4494 
L 1759 4494 
z
" transform="scale(0.015625)"/>
      <path id="DejaVuSans-Bold-79" d="M 78 3500 
L 1197 3500 
L 2138 1125 
L 2938 3500 
L 4056 3500 
L 2584 -331 
Q 2363 -916 2067 -1148 
Q 1772 -1381 1288 -1381 
L 641 -1381 
L 641 -647 
L 991 -647 
Q 1275 -647 1404 -556 
Q 1534 -466 1606 -231 
L 1638 -134 
L 78 3500 
z
" transform="scale(0.015625)"/>
      <path id="DejaVuSans-Bold-20" transform="scale(0.015625)"/>
      <path id="DejaVuSans-Bold-61" d="M 2106 1575 
Q 1756 1575 1579 1456 
Q 1403 1338 1403 1106 
Q 1403 894 1545 773 
Q 1688 653 1941 653 
Q 2256 653 2472 879 
Q 2688 1106 2688 1447 
L 2688 1575 
L 2106 1575 
z
M 3816 1997 
L 3816 0 
L 2688 0 
L 2688 519 
Q 2463 200 2181 54 
Q 1900 -91 1497 -91 
Q 953 -91 614 226 
Q 275 544 275 1050 
Q 275 1666 698 1953 
Q 1122 2241 2028 2241 
L 2688 2241 
L 2688 2328 
Q 2688 2594 2478 2717 
Q 2269 2841 1825 2841 
Q 1466 2841 1156 2769 
Q 847 2697 581 2553 
L 581 3406 
Q 941 3494 1303 3539 
Q 1666 3584 2028 3584 
Q 2975 3584 3395 3211 
Q 3816 2838 3816 1997 
z
" transform="scale(0.015625)"/>
      <path id="DejaVuSans-Bold-68" d="M 4056 2131 
L 4056 0 
L 2931 0 
L 2931 347 
L 2931 1625 
Q 2931 2084 2911 2256 
Q 2891 2428 2841 2509 
Q 2775 2619 2662 2680 
Q 2550 2741 2406 2741 
Q 2056 2741 1856 2470 
Q 1656 2200 1656 1722 
L 1656 0 
L 538 0 
L 538 4863 
L 1656 4863 
L 1656 2988 
Q 1909 3294 2193 3439 
Q 2478 3584 2822 3584 
Q 3428 3584 3742 3212 
Q 4056 2841 4056 2131 
z
" transform="scale(0.015625)"/>
      <path id="DejaVuSans-Bold-72" d="M 3138 2547 
Q 2991 2616 2845 2648 
Q 2700 2681 2553 2681 
Q 2122 2681 1889 2404 
Q 1656 2128 1656 1613 
L 1656 0 
L 538 0 
L 538 3500 
L 1656 3500 
L 1656 2925 
Q 1872 3269 2151 3426 
Q 2431 3584 2822 3584 
Q 2878 3584 2943 3579 
Q 3009 3575 3134 3559 
L 3138 2547 
z
" transform="scale(0.015625)"/>
      <path id="DejaVuSans-Bold-7a" d="M 366 3500 
L 3419 3500 
L 3419 2719 
L 1575 800 
L 3419 800 
L 3419 0 
L 288 0 
L 288 781 
L 2131 2700 
L 366 2700 
L 366 3500 
z
" transform="scale(0.015625)"/>
      <path id="DejaVuSans-Bold-6e" d="M 4056 2131 
L 4056 0 
L 2931 0 
L 2931 347 
L 2931 1631 
Q 2931 2084 2911 2256 
Q 2891 2428 2841 2509 
Q 2775 2619 2662 2680 
Q 2550 2741 2406 2741 
Q 2056 2741 1856 2470 
Q 1656 2200 1656 1722 
L 1656 0 
L 538 0 
L 538 3500 
L 1656 3500 
L 1656 2988 
Q 1909 3294 2193 3439 
Q 2478 3584 2822 3584 
Q 3428 3584 3742 3212 
Q 4056 2841 4056 2131 
z
" transform="scale(0.015625)"/>
      <path id="DejaVuSans-Bold-28" d="M 2413 -844 
L 1484 -844 
Q 1006 -72 778 623 
Q 550 1319 550 2003 
Q 550 2688 779 3389 
Q 1009 4091 1484 4856 
L 2413 4856 
Q 2013 4116 1813 3408 
Q 1613 2700 1613 2009 
Q 1613 1319 1811 609 
Q 2009 -100 2413 -844 
z
" transform="scale(0.015625)"/>
      <path id="DejaVuSans-Bold-3d" d="M 678 3084 
L 4684 3084 
L 4684 2350 
L 678 2350 
L 678 3084 
z
M 678 1663 
L 4684 1663 
L 4684 922 
L 678 922 
L 678 1663 
z
" transform="scale(0.015625)"/>
      <path id="DejaVuSans-Bold-30" d="M 2944 2338 
Q 2944 3213 2780 3570 
Q 2616 3928 2228 3928 
Q 1841 3928 1675 3570 
Q 1509 3213 1509 2338 
Q 1509 1453 1675 1090 
Q 1841 728 2228 728 
Q 2613 728 2778 1090 
Q 2944 1453 2944 2338 
z
M 4147 2328 
Q 4147 1169 3647 539 
Q 3147 -91 2228 -91 
Q 1306 -91 806 539 
Q 306 1169 306 2328 
Q 306 3491 806 4120 
Q 1306 4750 2228 4750 
Q 3147 4750 3647 4120 
Q 4147 3491 4147 2328 
z
" transform="scale(0.015625)"/>
      <path id="DejaVuSans-Bold-2e" d="M 653 1209 
L 1778 1209 
L 1778 0 
L 653 0 
L 653 1209 
z
" transform="scale(0.015625)"/>
      <path id="DejaVuSans-Bold-35" d="M 678 4666 
L 3669 4666 
L 3669 3781 
L 1638 3781 
L 1638 3059 
Q 1775 3097 1914 3117 
Q 2053 3138 2203 3138 
Q 3056 3138 3531 2711 
Q 4006 2284 4006 1522 
Q 4006 766 3489 337 
Q 2972 -91 2053 -91 
Q 1656 -91 1267 -14 
Q 878 63 494 219 
L 494 1166 
Q 875 947 1217 837 
Q 1559 728 1863 728 
Q 2300 728 2551 942 
Q 2803 1156 2803 1522 
Q 2803 1891 2551 2103 
Q 2300 2316 1863 2316 
Q 1603 2316 1309 2248 
Q 1016 2181 678 2041 
L 678 4666 
z
" transform="scale(0.015625)"/>
      <path id="DejaVuSans-Bold-29" d="M 513 -844 
Q 913 -100 1113 609 
Q 1313 1319 1313 2009 
Q 1313 2700 1113 3408 
Q 913 4116 513 4856 
L 1441 4856 
Q 1916 4091 2145 3389 
Q 2375 2688 2375 2003 
Q 2375 1319 2147 623 
Q 1919 -72 1441 -844 
L 513 -844 
z
" transform="scale(0.015625)"/>
     </defs>
     <use xlink:href="#DejaVuSans-Bold-76"/>
     <use xlink:href="#DejaVuSans-Bold-2d" transform="translate(65.185547 0)"/>
     <use xlink:href="#DejaVuSans-Bold-76" transform="translate(106.689453 0)"/>
     <use xlink:href="#DejaVuSans-Bold-65" transform="translate(171.875 0)"/>
     <use xlink:href="#DejaVuSans-Bold-6c" transform="translate(239.697266 0)"/>
     <use xlink:href="#DejaVuSans-Bold-6f" transform="translate(273.974609 0)"/>
     <use xlink:href="#DejaVuSans-Bold-63" transform="translate(342.675781 0)"/>
     <use xlink:href="#DejaVuSans-Bold-69" transform="translate(401.953125 0)"/>
     <use xlink:href="#DejaVuSans-Bold-74" transform="translate(436.230469 0)"/>
     <use xlink:href="#DejaVuSans-Bold-79" transform="translate(484.033203 0)"/>
     <use xlink:href="#DejaVuSans-Bold-20" transform="translate(549.21875 0)"/>
     <use xlink:href="#DejaVuSans-Bold-61" transform="translate(584.033203 0)"/>
     <use xlink:href="#DejaVuSans-Bold-74" transform="translate(651.513672 0)"/>
     <use xlink:href="#DejaVuSans-Bold-20" transform="translate(699.316406 0)"/>
     <use xlink:href="#DejaVuSans-Bold-68" transform="translate(734.130859 0)"/>
     <use xlink:href="#DejaVuSans-Bold-6f" transform="translate(805.322266 0)"/>
     <use xlink:href="#DejaVuSans-Bold-72" transform="translate(874.023438 0)"/>
     <use xlink:href="#DejaVuSans-Bold-69" transform="translate(923.339844 0)"/>
     <use xlink:href="#DejaVuSans-Bold-7a" transform="translate(957.617188 0)"/>
     <use xlink:href="#DejaVuSans-Bold-6f" transform="translate(1015.820312 0)"/>
     <use xlink:href="#DejaVuSans-Bold-6e" transform="translate(1084.521484 0)"/>
     <use xlink:href="#DejaVuSans-Bold-74" transform="translate(1155.712891 0)"/>
     <use xlink:href="#DejaVuSans-Bold-61" transform="translate(1203.515625 0)"/>
     <use xlink:href="#DejaVuSans-Bold-6c" transform="translate(1270.996094 0)"/>
     <use xlink:href="#DejaVuSans-Bold-20" transform="translate(1305.273438 0)"/>
     <use xlink:href="#DejaVuSans-Bold-63" transform="translate(1340.087891 0)"/>
     <use xlink:href="#DejaVuSans-Bold-65" transform="translate(1399.365234 0)"/>
     <use xlink:href="#DejaVuSans-Bold-6e" transform="translate(1467.1875 0)"/>
     <use xlink:href="#DejaVuSans-Bold-74" transform="translate(1538.378906 0)"/>
     <use xlink:href="#DejaVuSans-Bold-65" transform="translate(1586.181641 0)"/>
     <use xlink:href="#DejaVuSans-Bold-72" transform="translate(1654.003906 0)"/>
     <use xlink:href="#DejaVuSans-Bold-6c" transform="translate(1703.320312 0)"/>
     <use xlink:href="#DejaVuSans-Bold-69" transform="translate(1737.597656 0)"/>
     <use xlink:href="#DejaVuSans-Bold-6e" transform="translate(1771.875 0)"/>
     <use xlink:href="#DejaVuSans-Bold-65" transform="translate(1843.066406 0)"/>
     <use xlink:href="#DejaVuSans-Bold-20" transform="translate(1910.888672 0)"/>
     <use xlink:href="#DejaVuSans-Bold-28" transform="translate(1945.703125 0)"/>
     <use xlink:href="#DejaVuSans-Bold-79" transform="translate(1991.40625 0)"/>
     <use xlink:href="#DejaVuSans-Bold-3d" transform="translate(2056.591797 0)"/>
     <use xlink:href="#DejaVuSans-Bold-30" transform="translate(2140.380859 0)"/>
     <use xlink:href="#DejaVuSans-Bold-2e" transform="translate(2209.960938 0)"/>
     <use xlink:href="#DejaVuSans-Bold-35" transform="translate(2247.949219 0)"/>
     <use xlink:href="#DejaVuSans-Bold-29" transform="translate(2317.529297 0)"/>
    </g>
    <!-- Grid: 129×129 -->
    <g transform="translate(326.39125 31.736687) scale(0.13 -0.13)">
     <defs>
      <path id="DejaVuSans-Bold-47" d="M 4781 347 
Q 4331 128 3847 18 
Q 3363 -91 2847 -91 
Q 1681 -91 1000 561 
Q 319 1213 319 2328 
Q 319 3456 1012 4103 
Q 1706 4750 2913 4750 
Q 3378 4750 3804 4662 
Q 4231 4575 4609 4403 
L 4609 3438 
Q 4219 3659 3833 3768 
Q 3447 3878 3059 3878 
Q 2341 3878 1952 3476 
Q 1563 3075 1563 2328 
Q 1563 1588 1938 1184 
Q 2313 781 3003 781 
Q 3191 781 3352 804 
Q 3513 828 3641 878 
L 3641 1784 
L 2906 1784 
L 2906 2591 
L 4781 2591 
L 4781 347 
z
" transform="scale(0.015625)"/>
      <path id="DejaVuSans-Bold-64" d="M 2919 2988 
L 2919 4863 
L 4044 4863 
L 4044 0 
L 2919 0 
L 2919 506 
Q 2688 197 2409 53 
Q 2131 -91 1766 -91 
Q 1119 -91 703 423 
Q 288 938 288 1747 
Q 288 2556 703 3070 
Q 1119 3584 1766 3584 
Q 2128 3584 2408 3439 
Q 2688 3294 2919 2988 
z
M 2181 722 
Q 2541 722 2730 984 
Q 2919 1247 2919 1747 
Q 2919 2247 2730 2509 
Q 2541 2772 2181 2772 
Q 1825 2772 1636 2509 
Q 1447 2247 1447 1747 
Q 1447 1247 1636 984 
Q 1825 722 2181 722 
z
" transform="scale(0.015625)"/>
      <path id="DejaVuSans-Bold-3a" d="M 716 3500 
L 1844 3500 
L 1844 2291 
L 716 2291 
L 716 3500 
z
M 716 1209 
L 1844 1209 
L 1844 0 
L 716 0 
L 716 1209 
z
" transform="scale(0.015625)"/>
      <path id="DejaVuSans-Bold-31" d="M 750 831 
L 1813 831 
L 1813 3847 
L 722 3622 
L 722 4441 
L 1806 4666 
L 2950 4666 
L 2950 831 
L 4013 831 
L 4013 0 
L 750 0 
L 750 831 
z
" transform="scale(0.015625)"/>
      <path id="DejaVuSans-Bold-32" d="M 1844 884 
L 3897 884 
L 3897 0 
L 506 0 
L 506 884 
L 2209 2388 
Q 2438 2594 2547 2791 
Q 2656 2988 2656 3200 
Q 2656 3528 2436 3728 
Q 2216 3928 1850 3928 
Q 1569 3928 1234 3808 
Q 900 3688 519 3450 
L 519 4475 
Q 925 4609 1322 4679 
Q 1719 4750 2100 4750 
Q 2938 4750 3402 4381 
Q 3866 4013 3866 3353 
Q 3866 2972 3669 2642 
Q 3472 2313 2841 1759 
L 1844 884 
z
" transform="scale(0.015625)"/>
      <path id="DejaVuSans-Bold-39" d="M 641 103 
L 641 966 
Q 928 831 1190 764 
Q 1453 697 1709 697 
Q 2247 697 2547 995 
Q 2847 1294 2900 1881 
Q 2688 1725 2447 1647 
Q 2206 1569 1925 1569 
Q 1209 1569 770 1986 
Q 331 2403 331 3084 
Q 331 3838 820 4291 
Q 1309 4744 2131 4744 
Q 3044 4744 3544 4128 
Q 4044 3513 4044 2388 
Q 4044 1231 3459 570 
Q 2875 -91 1856 -91 
Q 1528 -91 1228 -42 
Q 928 6 641 103 
z
M 2125 2350 
Q 2441 2350 2600 2554 
Q 2759 2759 2759 3169 
Q 2759 3575 2600 3781 
Q 2441 3988 2125 3988 
Q 1809 3988 1650 3781 
Q 1491 3575 1491 3169 
Q 1491 2759 1650 2554 
Q 1809 2350 2125 2350 
z
" transform="scale(0.015625)"/>
      <path id="DejaVuSans-Bold-d7" d="M 4563 3359 
L 3206 2003 
L 4563 653 
L 4038 128 
L 2681 1478 
L 1325 128 
L 800 653 
L 2156 2003 
L 800 3359 
L 1325 3884 
L 2681 2528 
L 4038 3884 
L 4563 3359 
z
" transform="scale(0.015625)"/>
     </defs>
     <use xlink:href="#DejaVuSans-Bold-47"/>
     <use xlink:href="#DejaVuSans-Bold-72" transform="translate(82.080078 0)"/>
     <use xlink:href="#DejaVuSans-Bold-69" transform="translate(131.396484 0)"/>
     <use xlink:href="#DejaVuSans-Bold-64" transform="translate(165.673828 0)"/>
     <use xlink:href="#DejaVuSans-Bold-3a" transform="translate(237.255859 0)"/>
     <use xlink:href="#DejaVuSans-Bold-20" transform="translate(277.246094 0)"/>
     <use xlink:href="#DejaVuSans-Bold-31" transform="translate(312.060547 0)"/>
     <use xlink:href="#DejaVuSans-Bold-32" transform="translate(381.640625 0)"/>
     <use xlink:href="#DejaVuSans-Bold-39" transform="translate(451.220703 0)"/>
     <use xlink:href="#DejaVuSans-Bold-d7" transform="translate(520.800781 0)"/>
     <use xlink:href="#DejaVuSans-Bold-31" transform="translate(604.589844 0)"/>
     <use xlink:href="#DejaVuSans-Bold-32" transform="translate(674.169922 0)"/>
     <use xlink:href="#DejaVuSans-Bold-39" transform="translate(743.75 0)"/>
    </g>
   </g>
   <g id="legend_1">
    <g id="patch_7">
     <path d="M 618.935312 89.771062 
L 697.416562 89.771062 
Q 699.416562 89.771062 699.416562 87.771062 
L 699.416562 44.736687 
Q 699.416562 42.736687 697.416562 42.736687 
L 618.935312 42.736687 
Q 616.935312 42.736687 616.935312 44.736687 
L 616.935312 87.771062 
Q 616.935312 89.771062 618.935312 89.771062 
z
" style="fill: #ffffff; opacity: 0.8; stroke: #cccccc; stroke-linejoin: miter"/>
    </g>
    <g id="line2d_26">
     <path d="M 620.935312 50.835125 
L 630.935312 50.835125 
L 640.935312 50.835125 
" style="fill: none; stroke: #1f77b4; stroke-width: 2; stroke-linecap: square"/>
     <g>
      <use xlink:href="#m3637543908" x="630.935312" y="50.835125" style="fill: #1f77b4; stroke: #1f77b4"/>
     </g>
    </g>
    <g id="text_15">
     <!-- Re=100 -->
     <g transform="translate(648.935312 54.335125) scale(0.1 -0.1)">
      <defs>
       <path id="DejaVuSans-52" d="M 2841 2188 
Q 3044 2119 3236 1894 
Q 3428 1669 3622 1275 
L 4263 0 
L 3584 0 
L 2988 1197 
Q 2756 1666 2539 1819 
Q 2322 1972 1947 1972 
L 1259 1972 
L 1259 0 
L 628 0 
L 628 4666 
L 2053 4666 
Q 2853 4666 3247 4331 
Q 3641 3997 3641 3322 
Q 3641 2881 3436 2590 
Q 3231 2300 2841 2188 
z
M 1259 4147 
L 1259 2491 
L 2053 2491 
Q 2509 2491 2742 2702 
Q 2975 2913 2975 3322 
Q 2975 3731 2742 3939 
Q 2509 4147 2053 4147 
L 1259 4147 
z
" transform="scale(0.015625)"/>
       <path id="DejaVuSans-65" d="M 3597 1894 
L 3597 1613 
L 953 1613 
Q 991 1019 1311 708 
Q 1631 397 2203 397 
Q 2534 397 2845 478 
Q 3156 559 3463 722 
L 3463 178 
Q 3153 47 2828 -22 
Q 2503 -91 2169 -91 
Q 1331 -91 842 396 
Q 353 884 353 1716 
Q 353 2575 817 3079 
Q 1281 3584 2069 3584 
Q 2775 3584 3186 3129 
Q 3597 2675 3597 1894 
z
M 3022 2063 
Q 3016 2534 2758 2815 
Q 2500 3097 2075 3097 
Q 1594 3097 1305 2825 
Q 1016 2553 972 2059 
L 3022 2063 
z
" transform="scale(0.015625)"/>
       <path id="DejaVuSans-3d" d="M 678 2906 
L 4684 2906 
L 4684 2381 
L 678 2381 
L 678 2906 
z
M 678 1631 
L 4684 1631 
L 4684 1100 
L 678 1100 
L 678 1631 
z
" transform="scale(0.015625)"/>
      </defs>
      <use xlink:href="#DejaVuSans-52"/>
      <use xlink:href="#DejaVuSans-65" transform="translate(64.982422 0)"/>
      <use xlink:href="#DejaVuSans-3d" transform="translate(126.505859 0)"/>
      <use xlink:href="#DejaVuSans-31" transform="translate(210.294922 0)"/>
      <use xlink:href="#DejaVuSans-30" transform="translate(273.917969 0)"/>
      <use xlink:href="#DejaVuSans-30" transform="translate(337.541016 0)"/>
     </g>
    </g>
    <g id="line2d_27">
     <path d="M 620.935312 65.51325 
L 630.935312 65.51325 
L 640.935312 65.51325 
" style="fill: none; stroke: #ff7f0e; stroke-width: 2; stroke-linecap: square"/>
     <g>
      <use xlink:href="#mcd5fc36787" x="630.935312" y="65.51325" style="fill: #ff7f0e; stroke: #ff7f0e"/>
     </g>
    </g>
    <g id="text_16">
     <!-- Re=400 -->
     <g transform="translate(648.935312 69.01325) scale(0.1 -0.1)">
      <use xlink:href="#DejaVuSans-52"/>
      <use xlink:href="#DejaVuSans-65" transform="translate(64.982422 0)"/>
      <use xlink:href="#DejaVuSans-3d" transform="translate(126.505859 0)"/>
      <use xlink:href="#DejaVuSans-34" transform="translate(210.294922 0)"/>
      <use xlink:href="#DejaVuSans-30" transform="translate(273.917969 0)"/>
      <use xlink:href="#DejaVuSans-30" transform="translate(337.541016 0)"/>
     </g>
    </g>
    <g id="line2d_28">
     <path d="M 620.935312 80.191375 
L 630.935312 80.191375 
L 640.935312 80.191375 
" style="fill: none; stroke: #2ca02c; stroke-width: 2; stroke-linecap: square"/>
     <g>
      <use xlink:href="#m5625560358" x="630.935312" y="80.191375" style="fill: #2ca02c; stroke: #2ca02c"/>
     </g>
    </g>
    <g id="text_17">
     <!-- Re=1000 -->
     <g transform="translate(648.935312 83.691375) scale(0.1 -0.1)">
      <use xlink:href="#DejaVuSans-52"/>
      <use xlink:href="#DejaVuSans-65" transform="translate(64.982422 0)"/>
      <use xlink:href="#DejaVuSans-3d" transform="translate(126.505859 0)"/>
      <use xlink:href="#DejaVuSans-31" transform="translate(210.294922 0)"/>
      <use xlink:href="#DejaVuSans-30" transform="translate(273.917969 0)"/>
      <use xlink:href="#DejaVuSans-30" transform="translate(337.541016 0)"/>
      <use xlink:href="#DejaVuSans-30" transform="translate(401.164062 0)"/>
     </g>
    </g>
   </g>
  </g>
 </g>
 <defs>
  <clipPath id="p9dd0ed7e56">
   <rect x="54.096563" y="37.736687" width="650.32" height="345.304"/>
  </clipPath>
 </defs>
</svg>
